# This file uses centimeters as units for non-parametric coordinates.

g default
v -0.255262 0.000491 0.347382
v 0.269766 0.000491 0.352960
v -0.255266 0.018423 0.348078
v 0.269759 0.018423 0.353655
v -0.250364 0.016891 -0.357410
v 0.274662 0.016891 -0.351833
v -0.250371 -0.001262 -0.356533
v 0.274658 -0.001262 -0.350956
v -0.242721 0.025931 0.331503
v 0.257447 0.025931 0.336817
v 0.262118 0.024983 -0.335277
v -0.238050 0.024983 -0.340590
v -0.251713 0.060094 0.255325
v 0.247863 0.060312 0.285960
v 0.259784 0.045174 0.000223
v -0.240384 0.044147 -0.004175
v 0.261848 0.072116 -0.296486
v -0.238320 0.072116 -0.301802
v -0.253540 0.011530 0.099807
v 0.259330 0.030658 0.037573
v 0.260987 0.108361 0.099074
v -0.238700 0.107588 0.076389
v -0.240838 0.033650 0.028869
v -0.240050 0.032440 -0.042101
v -0.239917 0.082984 -0.072002
v 0.260250 0.082984 -0.066689
v 0.260007 0.032173 -0.031648
v -0.253072 0.014568 0.032217
v -0.253076 0.030093 0.032838
v -0.240605 0.089265 0.027137
v 0.259562 0.091874 0.032451
v 0.271951 0.026108 0.038416
v 0.271956 0.014569 0.037794
v -0.252572 0.027598 -0.039797
v -0.252577 0.016320 -0.039039
v 0.272451 0.016323 -0.033461
v 0.272455 0.027623 -0.034223
v 0.259995 0.072687 -0.029872
v -0.240170 0.072687 -0.035185
v -0.242565 0.050386 0.323284
v -0.241080 0.071975 0.095683
v -0.240602 0.064154 0.027070
v -0.240339 0.042820 -0.004247
v -0.240160 0.053714 -0.037022
v -0.239918 0.057734 -0.071794
v -0.238136 0.049823 -0.328324
v 0.262032 0.049823 -0.323010
v 0.260250 0.057734 -0.066482
v 0.260007 0.053714 -0.031706
v 0.259807 0.044526 0.000649
v 0.259562 0.064154 0.032384
v 0.259086 0.071975 0.100994
v 0.257602 0.050386 0.328597
v -0.252820 0.005744 -0.004170
v 0.272207 0.005744 0.001406
v 0.272025 0.007471 0.027743
v -0.253002 0.007471 0.022169
v -0.252647 0.009179 -0.028850
v 0.272380 0.009175 -0.023275
v -0.240701 0.085716 0.026363
v -0.238792 0.105538 0.074555
v -0.251876 0.056688 0.260013
v 0.247731 0.056238 0.289874
v 0.260903 0.105034 0.096958
v 0.259471 0.089082 0.031424
v 0.260449 0.108407 0.057481
v -0.239718 0.104181 0.050142
v -0.239840 0.102070 0.050864
v 0.260330 0.104594 0.055911
v 0.259805 0.084022 0.189341
v -0.238690 0.087829 0.138694
v -0.238670 0.086011 0.136925
v 0.259786 0.080126 0.188038
v 0.259517 0.027010 0.017383
v 0.271931 0.021884 0.025164
v 0.259745 0.027811 -0.015532
v 0.272183 0.022685 -0.020843
v -0.240222 0.030180 -0.020846
v -0.252644 0.024752 -0.027908
v -0.240452 0.029582 0.012069
v -0.252896 0.024155 0.018097
v 0.259784 0.025401 0.001406
v 0.272183 0.020275 0.001406
v -0.240452 0.028441 -0.004962
v -0.252644 0.021758 -0.005519
vt 0.984696 0.964791
vt 0.985948 0.582221
vt 0.999023 0.582263
vt 0.997771 0.964831
vt 0.345499 0.903780
vt 0.327794 0.539520
vt 0.400372 0.531603
vt 0.432948 0.895245
vt 0.958671 0.964779
vt 0.959942 0.582210
vt 0.973184 0.582250
vt 0.971913 0.964821
vt 0.789551 0.517980
vt 0.406987 0.520458
vt 0.405155 0.339893
vt 0.404654 0.290597
vt 0.787218 0.288118
vt 0.851211 0.474098
vt 0.838959 0.469530
vt 0.920534 0.254618
vt 0.928378 0.257678
vt 0.857723 0.634688
vt 0.802525 0.462758
vt 0.814998 0.458832
vt 0.883604 0.678211
vt 0.872809 0.681622
vt 0.389595 0.521155
vt 0.008132 0.525316
vt 0.017811 0.512026
vt 0.379620 0.508094
vt 0.012359 0.295171
vt 0.002573 0.296056
vt 0.000977 0.010873
vt 0.382485 0.001015
vt 0.372737 0.014590
vt 0.011156 0.023901
vt 0.379808 0.286028
vt 0.389085 0.289091
vt 0.905452 0.187754
vt 0.917573 0.193087
vt 0.822764 0.404497
vt 0.815289 0.401038
vt 0.401751 0.003497
vt 0.784316 0.001016
vt 0.786668 0.232700
vt 0.404104 0.235181
vt 0.797320 0.009056
vt 0.807816 0.000981
vt 0.946338 0.186535
vt 0.939894 0.191691
vt 0.011637 0.243785
vt 0.001971 0.241852
vt 0.618388 0.898341
vt 0.619549 0.533887
vt 0.787173 0.535035
vt 0.786014 0.899490
vt 0.379073 0.233434
vt 0.388931 0.234829
vt 0.958671 0.571750
vt 0.960858 0.207299
vt 0.979657 0.207363
vt 0.977470 0.571813
vt 0.856676 0.945711
vt 0.852537 0.727681
vt 0.884230 0.772817
vt 0.874275 0.939105
vt 0.059399 0.544343
vt 0.046911 0.710459
vt 0.011170 0.753729
vt 0.042847 0.535432
vt 0.073670 0.043214
vt 0.071231 0.230205
vt 0.051511 0.254746
vt 0.055981 0.033491
vt 0.947493 0.372962
vt 0.946848 0.737419
vt 0.926662 0.737351
vt 0.927308 0.372894
vt 0.804250 0.303402
vt 0.800183 0.086451
vt 0.819585 0.106812
vt 0.821906 0.293952
vt 0.390074 0.277494
vt 0.812813 0.448447
vt 0.404373 0.262402
vt 0.786936 0.259922
vt 0.787132 0.279153
vt 0.404569 0.281634
vt 0.519811 0.897626
vt 0.520642 0.533165
vt 0.561983 0.533525
vt 0.559825 0.897970
vt 0.013683 0.778643
vt 0.891008 0.016077
vt 0.032856 0.758774
vt 0.379856 0.273491
vt 0.591694 0.533699
vt 0.590533 0.898152
vt 0.059471 0.278651
vt 0.846149 0.016353
vt 0.067193 0.255392
vt 0.011500 0.255944
vt 0.001366 0.252404
vt 0.917912 0.246044
vt 0.928475 0.247544
vt 0.404190 0.244246
vt 0.786754 0.241766
vt 0.480571 0.895712
vt 0.468497 0.531450
vt 0.498796 0.532213
vt 0.499845 0.896700
vt 0.876797 0.723053
vt 0.815291 0.081485
vt 0.829387 0.624119
vt 0.828071 0.625417
vt 0.805750 0.535448
vt 0.808285 0.538826
vt 0.841711 0.688574
vt 0.840166 0.688060
vt 0.842596 0.670768
vt 0.844082 0.669421
vt 0.915269 0.015797
vt 0.828377 0.706008
vt 0.830959 0.705424
vt 0.809275 0.057467
vt 0.829107 0.080112
vt 0.837973 0.106132
vt 0.837306 0.274168
vt 0.901418 0.737235
vt 0.902062 0.372778
vt 0.089617 0.230861
vt 0.089050 0.063235
vt 0.080945 0.257333
vt 0.059957 0.278362
vt 0.092905 0.303335
vt 0.090903 0.302501
vt 0.102877 0.352350
vt 0.100520 0.350707
vt 0.101453 0.320809
vt 0.104182 0.322070
vt 0.058790 0.490097
vt 0.079570 0.416245
vt 0.082366 0.417314
vt 0.061897 0.487394
vt 0.341277 0.903896
vt 0.323678 0.539643
vt 0.120019 0.396469
vt 0.110279 0.032142
vt 0.276822 0.028370
vt 0.286560 0.392696
vt 0.327125 0.027210
vt 0.336865 0.391534
vt 0.354306 0.026548
vt 0.364468 0.390847
vt 0.309476 0.540801
vt 0.295782 0.905222
vt 0.203407 0.897513
vt 0.233095 0.533602
vt 0.164293 0.534183
vt 0.155798 0.898542
vt 0.138373 0.899682
vt 0.134399 0.535242
vt 0.113297 0.536336
vt 0.116928 0.900784
vt 0.078534 0.901339
vt 0.073845 0.536929
vt 0.864984 0.017861
vt 0.849369 0.713071
vt 0.001747 0.285822
vt 0.011794 0.280190
vt 0.797320 0.071042
vt 0.389492 0.243951
vt 0.379409 0.249169
vt 0.379789 0.260982
vt 0.011359 0.268445
vt 0.932775 0.230734
vt 0.939854 0.200758
vt 0.922718 0.227423
vt 0.810317 0.425881
vt 0.814123 0.409869
vt 0.824963 0.413292
vt 0.820860 0.430978
vt 0.006181 0.765298
vt 0.921551 0.007395
vt 0.900859 0.008484
vt 0.882254 0.689712
vt 0.802525 0.441324
vt 0.047820 0.266339
vt 0.876871 0.010569
vt 0.852179 0.005443
vt 0.948950 0.196596
vt 0.939514 0.215886
vt 0.930717 0.211123
vt 0.861701 0.700440
vt 0.838959 0.001002
vt 0.870158 0.000984
vt 0.805682 0.058337
vt 0.808301 0.057462
vt 0.797320 0.728589
vt 0.893531 0.000977
vt 0.911827 0.000989
vt 0.798287 0.728528
vt 0.869745 0.690045
vt 0.389978 0.260424
vt 0.001513 0.268584
vn -0.010614 -0.038754 0.999192
vn -0.010614 -0.038754 0.999192
vn -0.010614 -0.038754 0.999192
vn -0.010614 -0.038754 0.999192
vn -0.015460 0.972408 0.232775
vn -0.015460 0.972408 0.232775
vn -0.016303 0.967710 0.251539
vn -0.016311 0.967663 0.251717
vn 0.010610 -0.048270 -0.998778
vn 0.010610 -0.048270 -0.998778
vn 0.010610 -0.048270 -0.998778
vn 0.010610 -0.048270 -0.998778
vn 0.000493 -0.999004 -0.044620
vn 0.000493 -0.999004 -0.044620
vn 0.000493 -0.999004 -0.044620
vn 0.000493 -0.999004 -0.044620
vn 0.000493 -0.999004 -0.044620
vn 0.999976 0.000083 0.006954
vn 0.999976 0.000083 0.006954
vn 0.999976 0.000083 0.006954
vn 0.999976 0.000083 0.006954
vn -0.999976 -0.000018 -0.006948
vn -0.999976 -0.000018 -0.006948
vn -0.999976 -0.000018 -0.006948
vn -0.999976 -0.000018 -0.006948
vn -0.999976 -0.000018 -0.006948
vn -0.004354 0.912131 0.409877
vn -0.004354 0.912131 0.409877
vn -0.004354 0.912131 0.409877
vn -0.004354 0.912131 0.409877
vn 0.423184 0.906001 0.008814
vn 0.423119 0.905828 0.021101
vn 0.423119 0.905828 0.021101
vn 0.423183 0.905997 0.009221
vn 0.004634 0.899805 -0.436268
vn 0.004634 0.899805 -0.436268
vn 0.004634 0.899805 -0.436268
vn 0.004634 0.899805 -0.436268
vn -0.389264 0.920750 0.026328
vn -0.389264 0.920750 0.026328
vn -0.393101 0.919481 0.005141
vn -0.391506 0.920068 0.014072
vn -0.999976 0.000033 -0.006953
vn -0.999976 0.000033 -0.006953
vn -0.999976 0.000033 -0.006953
vn -0.999976 0.000033 -0.006953
vn -0.000585 -0.998470 0.055293
vn -0.000585 -0.998470 0.055293
vn -0.000585 -0.998470 0.055293
vn -0.000585 -0.998470 0.055293
vn 0.999976 0.000125 0.006946
vn 0.999976 0.000125 0.006946
vn 0.999976 0.000125 0.006946
vn 0.999976 0.000125 0.006946
vn 0.437264 0.899042 -0.022897
vn 0.437264 0.899042 -0.022897
vn 0.437572 0.899163 -0.006095
vn 0.437501 0.899155 -0.010670
vn 0.000023 0.999998 -0.002144
vn 0.000023 0.999998 -0.002142
vn 0.000502 0.998884 -0.047238
vn 0.000502 0.998884 -0.047238
vn -0.446383 0.894558 -0.022553
vn -0.448133 0.893483 -0.029402
vn -0.448133 0.893483 -0.029402
vn -0.445493 0.895082 -0.019104
vn -0.010068 0.318633 0.947825
vn -0.010068 0.318633 0.947825
vn -0.010068 0.318633 0.947825
vn -0.010068 0.318633 0.947825
vn 0.999973 -0.003841 0.006197
vn 0.999973 -0.003841 0.006197
vn 0.999973 -0.003841 0.006197
vn 0.999973 -0.003841 0.006197
vn -0.999972 0.004347 -0.006112
vn -0.999972 0.004347 -0.006112
vn -0.999972 0.004347 -0.006112
vn -0.999972 0.004347 -0.006112
vn 0.999976 -0.000010 0.006949
vn 0.999976 -0.000010 0.006949
vn 0.999976 -0.000010 0.006949
vn 0.999976 -0.000010 0.006949
vn 0.009525 0.442784 -0.896578
vn 0.009525 0.442784 -0.896578
vn 0.009525 0.442784 -0.896578
vn 0.009525 0.442784 -0.896578
vn -0.999976 -0.001440 -0.006775
vn -0.999976 -0.001440 -0.006775
vn -0.999976 -0.001440 -0.006775
vn -0.999976 -0.001440 -0.006775
vn -0.999937 0.005347 -0.009907
vn -0.999936 0.005523 -0.009841
vn -0.999936 0.001990 -0.011158
vn -0.999936 0.001990 -0.011158
vn -0.000694 -0.997859 0.065399
vn -0.000694 -0.997859 0.065399
vn -0.002503 -0.971828 0.235678
vn -0.002503 -0.971829 0.235672
vn 0.004427 0.668836 -0.743397
vn 0.004359 0.673056 -0.739578
vn 0.005915 0.569061 -0.822274
vn 0.005915 0.569061 -0.822274
vn -0.999892 0.001967 -0.014535
vn -0.999892 0.001967 -0.014535
vn -0.999892 0.001967 -0.014535
vn -0.999892 0.001967 -0.014535
vn -0.426588 0.859865 -0.280455
vn -0.426588 0.859865 -0.280455
vn -0.391506 0.920068 0.014072
vn -0.393101 0.919481 0.005141
vn -0.007318 0.736916 0.675945
vn -0.007318 0.736916 0.675945
vn -0.005326 0.869211 0.494413
vn -0.005326 0.869213 0.494409
vn 0.999954 -0.005056 0.008142
vn 0.999954 -0.005056 0.008142
vn 0.999954 -0.005056 0.008142
vn 0.999954 -0.005056 0.008142
vn 0.409698 0.895616 0.173260
vn 0.413649 0.888207 0.199959
vn 0.437501 0.899155 -0.010670
vn 0.437572 0.899163 -0.006095
vn 0.999970 0.004565 0.006314
vn 0.999973 0.004513 0.005883
vn 0.999993 0.003839 0.000238
vn 0.999993 0.003839 0.000238
vn 0.003080 -0.956942 -0.290263
vn 0.003080 -0.956942 -0.290264
vn 0.001459 -0.990467 -0.137739
vn 0.001459 -0.990467 -0.137739
vn -0.999943 0.007264 -0.007787
vn -0.999943 0.007264 -0.007787
vn -0.999943 0.007264 -0.007787
vn -0.013219 0.984223 0.176439
vn -0.013572 0.982686 0.184782
vn -0.001455 0.959612 -0.281322
vn -0.001306 0.954827 -0.297159
vn 0.999955 -0.005752 0.007603
vn 0.999955 -0.005752 0.007603
vn 0.999955 -0.005752 0.007603
vn 0.999976 0.000020 0.006989
vn 0.999976 0.000020 0.006989
vn 0.999976 0.000020 0.006989
vn -0.005326 0.869213 0.494409
vn -0.005326 0.869211 0.494413
vn 0.000023 0.999998 -0.002142
vn 0.000023 0.999998 -0.002144
vn -0.999967 -0.003415 -0.007338
vn -0.999967 -0.003415 -0.007338
vn -0.999967 -0.003415 -0.007338
vn -0.995622 -0.026752 -0.089559
vn -0.998541 -0.011174 -0.052833
vn -0.992283 -0.038738 -0.117790
vn -0.992283 -0.038738 -0.117790
vn -0.998964 0.039839 0.022015
vn -0.998977 0.039773 0.021524
vn -0.998499 0.041644 0.035586
vn -0.998499 0.041644 0.035586
vn -0.999354 0.016008 -0.032176
vn -0.999354 0.016008 -0.032176
vn -0.999354 0.016008 -0.032176
vn -0.999354 0.016008 -0.032176
vn -0.999970 -0.002074 -0.007437
vn -0.999970 -0.002074 -0.007437
vn -0.999970 -0.002074 -0.007437
vn -0.999970 -0.002074 -0.007437
vn -0.999976 0.000045 -0.006908
vn -0.999976 0.000045 -0.006908
vn -0.999976 0.000045 -0.006908
vn -0.999976 0.000045 -0.006908
vn -0.999976 0.000000 -0.006948
vn -0.999976 0.000000 -0.006948
vn -0.999976 0.000000 -0.006948
vn -0.999976 0.000000 -0.006948
vn 0.006837 0.765516 -0.643381
vn 0.006837 0.765516 -0.643381
vn 0.006837 0.765516 -0.643381
vn 0.006837 0.765516 -0.643381
vn 0.999976 0.000031 0.006947
vn 0.999976 0.000031 0.006947
vn 0.999976 0.000031 0.006947
vn 0.999976 0.000031 0.006947
vn 0.999976 0.000022 0.006964
vn 0.999976 0.000022 0.006964
vn 0.999976 0.000022 0.006964
vn 0.999976 0.000022 0.006964
vn 0.999972 0.001283 0.007347
vn 0.999972 0.001283 0.007347
vn 0.999972 0.001283 0.007347
vn 0.999972 0.001283 0.007347
vn 0.998341 -0.028455 0.050060
vn 0.998341 -0.028455 0.050060
vn 0.998341 -0.028455 0.050060
vn 0.998341 -0.028455 0.050060
vn 0.999679 -0.021551 -0.013338
vn 0.999679 -0.021551 -0.013338
vn 0.999609 -0.022665 -0.016383
vn 0.999663 -0.021815 -0.014060
vn 0.991871 0.022266 0.125283
vn 0.997969 0.001087 0.063698
vn 0.997607 0.002932 0.069074
vn 0.991871 0.022266 0.125283
vn -0.039476 0.754676 0.654910
vn -0.039476 0.754676 0.654910
vn -0.039476 0.754676 0.654909
vn -0.039476 0.754676 0.654909
vn -0.006126 -0.816799 0.576889
vn -0.006126 -0.816800 0.576889
vn -0.002503 -0.971829 0.235672
vn -0.002503 -0.971828 0.235678
vn 0.006098 -0.818731 -0.574145
vn 0.006098 -0.818731 -0.574145
vn 0.003080 -0.956942 -0.290264
vn 0.003080 -0.956942 -0.290263
vn -0.001003 0.995532 0.094423
vn -0.001003 0.995532 0.094423
vn -0.000493 0.998921 0.046440
vn -0.000493 0.998922 0.046415
vn -0.000493 0.998922 0.046415
vn -0.000493 0.998921 0.046440
vn 0.002291 0.962292 -0.272010
vn 0.002290 0.962334 -0.271859
vn 0.002290 0.962334 -0.271859
vn 0.002291 0.962292 -0.272010
vn 0.004130 0.838580 -0.544762
vn 0.004130 0.838581 -0.544762
vn 0.012390 -0.973376 -0.228881
vn 0.012390 -0.973376 -0.228881
vn 0.013194 -0.968354 -0.249233
vn 0.013181 -0.968444 -0.248882
vn 0.000362 -0.998183 0.060259
vn 0.000362 -0.998183 0.060259
vn -0.000102 -0.951106 0.308864
vn -0.000074 -0.955665 0.294455
vn -0.005234 -0.574537 0.818462
vn -0.005234 -0.574537 0.818462
vn -0.005234 -0.574537 0.818462
vn -0.005234 -0.574537 0.818462
vn -0.001306 0.954827 -0.297159
vn -0.001455 0.959612 -0.281322
vn 0.004359 0.673056 -0.739578
vn 0.004427 0.668836 -0.743397
vn -0.999196 0.038428 0.011450
vn -0.999196 0.038428 0.011450
vn -0.998977 0.039773 0.021524
vn -0.998964 0.039839 0.022015
vn -0.000074 -0.955665 0.294455
vn -0.000102 -0.951106 0.308864
vn -0.000575 -0.838247 0.545291
vn -0.000575 -0.838247 0.545291
vn 0.999663 -0.021815 -0.014060
vn 0.999609 -0.022665 -0.016383
vn 0.999518 -0.023910 -0.019783
vn 0.999518 -0.023910 -0.019783
vn -0.016311 0.967663 0.251717
vn -0.016303 0.967710 0.251539
vn -0.013572 0.982686 0.184782
vn -0.013219 0.984223 0.176439
vn -0.999896 0.013447 0.005302
vn -0.999896 0.013447 0.005302
vn -0.998541 -0.011174 -0.052833
vn -0.995622 -0.026752 -0.089559
vn 0.013181 -0.968444 -0.248882
vn 0.013194 -0.968354 -0.249233
vn 0.014330 -0.960463 -0.278040
vn 0.014330 -0.960463 -0.278040
vn 0.997607 0.002932 0.069074
vn 0.997969 0.001087 0.063698
vn 0.999807 -0.018072 0.007764
vn 0.999807 -0.018072 0.007764
vn 0.999926 -0.005581 0.010813
vn 0.999926 -0.005581 0.010813
vn 0.999926 -0.005581 0.010813
vn 0.999926 -0.005581 0.010813
vn 0.423184 0.906001 0.008814
vn 0.423183 0.905997 0.009221
vn 0.408866 0.900107 -0.150451
vn 0.405264 0.906695 -0.116902
vn -0.999973 -0.002165 -0.007037
vn -0.999973 -0.002165 -0.007037
vn -0.999973 -0.002165 -0.007037
vn -0.999973 -0.002165 -0.007037
vn -0.446383 0.894558 -0.022553
vn -0.445493 0.895082 -0.019104
vn -0.399316 0.906565 0.136701
vn -0.399316 0.906565 0.136701
vn -0.999872 0.008580 -0.013529
vn -0.999942 0.008258 -0.006958
vn -0.999944 0.008240 -0.006588
vn 0.999860 -0.000550 0.016733
vn 0.999973 -0.000922 0.007288
vn 0.999979 -0.000959 0.006354
vn 0.408866 0.900107 -0.150451
vn 0.400998 0.915841 0.020886
vn 0.400998 0.915843 0.020787
vn 0.405264 0.906695 -0.116902
vn 0.999818 0.006598 0.017882
vn 0.999818 0.006598 0.017882
vn 0.999934 0.007203 0.008951
vn 0.999942 0.007269 0.007977
vn 0.999960 0.006056 0.006617
vn 0.999960 0.006105 0.006548
vn 0.999973 0.004513 0.005883
vn 0.999970 0.004565 0.006314
vn 0.999942 0.007269 0.007977
vn 0.999934 0.007203 0.008951
vn 0.999960 0.006105 0.006548
vn 0.999960 0.006056 0.006617
vn 0.400998 0.915843 0.020787
vn 0.400998 0.915841 0.020886
vn 0.413649 0.888207 0.199959
vn 0.409698 0.895616 0.173260
vn 0.999979 -0.000959 0.006354
vn 0.999973 -0.000922 0.007288
vn 0.999996 -0.001307 -0.002486
vn -0.461427 0.887125 0.009743
vn -0.461566 0.887024 0.012018
vn -0.454021 0.887386 -0.080066
vn -0.454021 0.887386 -0.080066
vn -0.999944 0.008240 -0.006588
vn -0.999942 0.008258 -0.006958
vn -0.999968 0.007944 -0.000532
vn -0.465205 0.878845 0.105905
vn -0.461566 0.887024 0.012018
vn -0.461427 0.887125 0.009743
vn -0.465205 0.878845 0.105905
vn -0.999983 0.004584 -0.003560
vn -0.999958 0.006443 -0.006511
vn -0.999961 0.006342 -0.006062
vn -0.999984 0.003955 -0.003965
vn -0.999961 0.006342 -0.006062
vn -0.999958 0.006443 -0.006511
vn -0.999936 0.005523 -0.009841
vn -0.999937 0.005347 -0.009907
vn -0.999983 0.004584 -0.003560
vn -0.999984 0.003955 -0.003965
vn -0.999980 0.000371 -0.006278
vn -0.999980 0.000371 -0.006278
s off
g OpenBookLow:OpenBook
f 1/1/1 2/2/2 4/3/3 3/4/4
f 13/5/5 14/6/6 70/7/7 71/8/8
f 5/9/9 6/10/10 8/11/11 7/12/12
f 2/13/13 1/14/14 19/15/15 28/16/16 33/17/17
f 4/18/18 2/19/19 33/20/20 32/21/21
f 19/22/22 1/23/23 3/24/24 29/25/25 28/26/26
f 3/27/27 4/28/28 10/29/29 9/30/30
f 20/31/31 10/29/32 4/28/33 32/32/34
f 6/33/35 5/34/36 12/35/37 11/36/38
f 3/27/39 9/30/40 23/37/41 29/38/42
f 5/39/43 7/40/44 35/41/45 34/42/46
f 7/43/47 8/44/48 36/45/49 35/46/50
f 8/47/51 6/48/52 37/49/53 36/50/54
f 6/33/55 11/36/56 27/51/57 37/52/58
f 25/53/59 26/54/60 17/55/61 18/56/62
f 24/57/63 12/35/64 5/34/65 34/58/66
f 9/59/67 10/60/68 53/61/69 40/62/70
f 10/63/71 20/64/72 52/65/73 53/66/74
f 40/67/75 41/68/76 23/69/77 9/70/78
f 47/71/79 48/72/80 27/73/81 11/74/82
f 11/75/83 12/76/84 46/77/85 47/78/86
f 12/79/87 24/80/88 45/81/89 46/82/90
f 81/186/91 57/203/92 28/26/93 29/25/94
f 54/85/95 55/86/96 56/87/97 57/88/98
f 30/89/99 31/90/100 15/91/101 16/92/102
f 43/93/103 80/183/104 23/69/105 42/95/106
f 80/96/107 81/83/108 29/38/109 23/37/110
f 16/92/111 15/91/112 38/97/113 39/98/114
f 50/99/115 76/188/116 27/73/117 49/101/118
f 76/102/119 77/103/120 37/52/121 27/51/122
f 56/104/123 75/105/124 32/21/125 33/20/126
f 58/106/127 59/107/128 55/86/129 54/85/130
f 41/68/131 42/95/132 23/69/133
f 22/108/134 21/109/135 66/110/136 67/111/137
f 51/112/138 52/65/139 20/64/140
f 48/72/141 49/101/142 27/73/143
f 39/98/144 38/97/145 26/54/146 25/53/147
f 44/113/148 45/81/149 24/80/150
f 71/114/151 72/115/152 62/116/153 13/117/154
f 67/118/155 68/119/156 61/120/157 22/121/158
f 43/199/159 60/123/160 30/124/161 16/202/162
f 39/126/163 44/113/164 43/198/165 16/125/166
f 25/127/167 45/81/168 44/113/169 39/126/170
f 46/82/171 45/81/172 25/127/173 18/128/174
f 47/78/175 46/77/176 18/129/177 17/130/178
f 26/131/179 48/72/180 47/71/181 17/132/182
f 38/133/183 49/101/184 48/72/185 26/131/186
f 50/99/187 49/101/188 38/133/189 15/134/190
f 31/135/191 65/136/192 50/99/193 15/134/194
f 21/137/195 64/138/196 69/139/197 66/140/198
f 63/141/199 73/142/200 70/143/201 14/144/202
f 62/145/203 63/146/204 14/6/205 13/5/206
f 33/17/207 28/16/208 57/88/209 56/87/210
f 35/46/211 36/45/212 59/107/213 58/106/214
f 40/147/215 53/148/216 52/149/217 41/150/218
f 41/150/219 52/149/220 51/151/221 42/152/222
f 42/152/223 51/151/224 50/153/225 43/154/226
f 63/155/227 62/156/228 72/157/229 73/158/230
f 64/159/231 61/160/232 68/161/233 69/162/234
f 65/163/235 60/164/236 43/165/237 50/166/238
f 67/111/239 66/110/240 31/90/241 30/89/242
f 30/124/243 60/123/244 68/119/245 67/118/246
f 69/162/247 68/161/248 60/164/249 65/163/250
f 66/140/251 69/139/252 65/136/253 31/135/254
f 71/8/255 70/7/256 21/109/257 22/108/258
f 22/121/259 61/120/260 72/115/261 71/114/262
f 73/158/263 72/157/264 61/160/265 64/159/266
f 70/143/267 73/142/268 64/138/269 21/137/270
f 50/194/271 51/112/272 20/64/273 74/168/274
f 20/31/275 32/32/276 75/169/277 74/170/278
f 43/197/279 44/113/280 24/80/281 78/171/282
f 24/57/283 34/58/284 79/172/285 78/173/286
f 78/201/287 84/184/288 43/122/289
f 74/196/290 82/189/291 50/167/292
f 75/169/293 83/205/294 82/175/295 74/170/296
f 36/50/297 37/49/298 77/191/299 59/177/300
f 55/178/301 83/176/302 75/105/303 56/104/304
f 59/193/305 77/192/306 83/176/307 55/178/308
f 82/175/309 83/205/310 77/103/311 76/102/312
f 50/195/313 82/190/314 76/100/315
f 84/174/316 85/204/317 81/83/318 80/96/319
f 43/200/320 84/185/321 80/94/322
f 79/172/323 85/204/324 84/174/325 78/173/326
f 58/181/327 54/182/328 85/179/329 79/180/330
f 85/179/331 54/182/332 57/84/333 81/187/334
f 58/181/335 79/180/336 34/42/337 35/41/338
