# This file uses centimeters as units for non-parametric coordinates.

g default
v -0.134261 -0.091839 0.840826
v -0.120836 -0.091839 0.862563
v -0.217388 0.091839 0.840826
v -0.195651 0.091839 0.862563
v 0.134261 -0.091839 0.840826
v 0.120836 -0.091839 0.862563
v 0.217388 0.091839 0.840826
v 0.195651 0.091839 0.862563
v -0.217388 0.091839 -0.840827
v -0.195651 0.091839 -0.862563
v -0.135237 -0.024278 -0.840826
v -0.121715 -0.024278 -0.862563
v 0.195651 0.091839 -0.862563
v 0.217388 0.091839 -0.840826
v 0.135237 -0.024278 -0.840826
v 0.121715 -0.024278 -0.862563
v -0.217388 0.091839 0.173339
v -0.134261 -0.091839 0.068213
v 0.134261 -0.091839 0.068213
v 0.217388 0.091839 0.173339
v -0.134261 -0.024278 -0.049986
v -0.217388 0.091839 0.055140
v 0.217388 0.091839 0.055140
v 0.134261 -0.024278 -0.049986
v -0.217388 0.000000 0.840826
v -0.217388 0.000000 0.120776
v -0.217388 0.033781 0.002577
v -0.217388 0.033781 -0.840827
v -0.195651 0.033781 -0.862563
v 0.195651 0.033781 -0.862563
v 0.217388 0.033781 -0.840826
v 0.217388 0.033781 0.002577
v 0.217388 0.000000 0.120776
v 0.217388 0.000000 0.840826
v 0.195651 0.000000 0.862563
v -0.195651 0.000000 0.862563
v -0.033061 -0.100668 0.216424
v 0.033061 -0.100668 0.216424
v -0.033061 -0.070345 0.246395
v 0.033061 -0.070345 0.246395
v -0.033061 -0.070345 0.213547
v 0.033061 -0.070345 0.213547
v -0.033061 -0.100668 0.187554
v 0.033061 -0.100668 0.187554
v -0.097788 -0.099590 0.830383
v 0.097788 -0.099590 0.830383
v -0.097788 -0.057425 0.830383
v 0.097788 -0.057425 0.830383
v -0.097788 -0.057425 0.224720
v 0.097788 -0.057425 0.224720
v -0.097788 -0.099590 0.224720
v 0.097788 -0.099590 0.224720
vt 0.386931 0.012243
vt 0.612213 0.012178
vt 0.026274 0.030963
vt 0.235475 0.059464
vt 0.260601 0.923491
vt 0.252544 0.930925
vt 0.142603 0.927989
vt 0.135215 0.920189
vt 0.073436 0.998963
vt 0.101851 0.062242
vt 0.109219 0.054066
vt 0.283711 0.000977
vt 0.351135 0.974898
vt 0.308731 0.022797
vt 0.048146 0.979322
vt 0.327988 0.999023
vt 0.049874 0.008064
vt 0.611907 0.879611
vt 0.226871 0.051131
vt 0.000977 0.604913
vt 0.387624 0.356595
vt 0.114831 0.540264
vt 0.259975 0.532448
vt 0.611977 0.356455
vt 0.377154 0.589510
vt 0.104271 0.474976
vt 0.011339 0.531134
vt 0.387709 0.417568
vt 0.611973 0.417425
vt 0.361948 0.514206
vt 0.265119 0.464219
vt 0.082496 0.950394
vt 0.048795 0.570319
vt 0.044373 0.502583
vt 0.052623 0.045712
vt 0.063549 0.032426
vt 0.271957 0.028270
vt 0.283603 0.040289
vt 0.326850 0.488160
vt 0.327384 0.557832
vt 0.315008 0.947802
vt 0.303806 0.959398
vt 0.093823 0.962739
vt 0.788524 0.036620
vt 0.822610 0.036448
vt 0.838319 0.051819
vt 0.788635 0.058599
vt 0.788345 0.001149
vt 0.822430 0.000977
vt 0.822534 0.021565
vt 0.788449 0.021737
vt 0.838234 0.034886
vt 0.772885 0.035216
vt 0.639471 0.336006
vt 0.745767 0.337763
vt 0.764078 0.350860
vt 0.622792 0.350856
vt 0.622826 0.001097
vt 0.764168 0.000977
vt 0.747512 0.015851
vt 0.641194 0.014102
vt 0.822721 0.058426
vt 0.772971 0.052149
vt 0.388389 0.879729
vt 0.597281 0.889742
vt 0.402214 0.889746
vt 0.601045 0.000977
vt 0.398087 0.001019
vn 0.080835 -0.039218 0.995956
vn -0.080835 -0.039218 0.995956
vn -0.035671 -0.201429 0.978854
vn 0.035671 -0.201429 0.978854
vn -0.029536 -0.283132 -0.958626
vn -0.089718 -0.069830 -0.993516
vn 0.089718 -0.069829 -0.993516
vn 0.029537 -0.283133 -0.958626
vn 0.866094 -0.499424 -0.021383
vn 0.906177 -0.422390 0.020731
vn 0.249792 -0.968274 0.006984
vn 0.206730 -0.975605 -0.073875
vn -0.906177 -0.422390 0.020731
vn -0.866094 -0.499425 -0.021383
vn -0.206730 -0.975605 -0.073875
vn -0.249792 -0.968274 0.006984
vn 0.000000 1.000000 0.000000
vn 0.000000 1.000000 0.000000
vn 0.000000 1.000000 0.000000
vn 0.000000 1.000000 0.000000
vn -0.168985 -0.985609 -0.004426
vn 0.168985 -0.985609 -0.004426
vn -0.824540 -0.565596 -0.015310
vn 0.824540 -0.565597 -0.015310
vn 0.000000 1.000000 -0.000000
vn 0.000000 1.000000 -0.000000
vn 0.000000 1.000000 -0.000000
vn 0.000000 1.000000 -0.000000
vn 0.000000 1.000000 0.000000
vn 0.000000 1.000000 0.000000
vn -0.908117 -0.417196 -0.035645
vn -0.206409 -0.976462 -0.062587
vn 0.206409 -0.976462 -0.062587
vn 0.908117 -0.417196 -0.035645
vn 0.000000 1.000000 0.000000
vn 0.000000 1.000000 0.000000
vn -1.000000 0.000000 0.000000
vn -0.999539 0.000000 0.030365
vn -1.000000 0.000000 0.000000
vn -0.999703 0.000000 -0.024377
vn -0.052553 0.000001 -0.998618
vn 0.052553 0.000001 -0.998618
vn 0.999703 0.000000 -0.024377
vn 1.000000 -0.000000 0.000000
vn 1.000000 -0.000000 0.000000
vn 0.999539 0.000000 0.030365
vn 0.052553 0.000000 0.998618
vn -0.052553 0.000000 0.998618
vn 0.000000 -0.702961 0.711228
vn 0.000000 -0.702961 0.711228
vn 0.000000 -0.702961 0.711228
vn 0.000000 -0.702961 0.711228
vn 0.000000 0.650816 -0.759235
vn 0.000000 0.650816 -0.759235
vn 0.000000 0.650816 -0.759235
vn 0.000000 0.650816 -0.759235
vn 0.000000 -1.000000 0.000000
vn 0.000000 -1.000000 0.000000
vn 0.000000 -1.000000 0.000000
vn 0.000000 -1.000000 0.000000
vn 1.000000 0.000000 0.000000
vn 1.000000 0.000000 0.000000
vn 1.000000 0.000000 0.000000
vn 1.000000 0.000000 0.000000
vn -1.000000 0.000000 0.000000
vn -1.000000 0.000000 0.000000
vn -1.000000 0.000000 0.000000
vn -1.000000 0.000000 0.000000
vn 0.000000 0.000000 1.000000
vn 0.000000 0.000000 1.000000
vn 0.000000 0.000000 1.000000
vn 0.000000 0.000000 1.000000
vn 0.000000 0.000000 -1.000000
vn 0.000000 0.000000 -1.000000
vn 0.000000 0.000000 -1.000000
vn 0.000000 0.000000 -1.000000
vn 0.000000 -1.000000 0.000000
vn 0.000000 -1.000000 0.000000
vn 0.000000 -1.000000 0.000000
vn 0.000000 -1.000000 0.000000
vn 1.000000 0.000000 0.000000
vn 1.000000 0.000000 0.000000
vn 1.000000 0.000000 0.000000
vn 1.000000 0.000000 0.000000
vn -1.000000 0.000000 0.000000
vn -1.000000 0.000000 0.000000
vn -1.000000 0.000000 0.000000
vn -1.000000 0.000000 0.000000
s 1
g Remote
f 35/42/1 36/43/2 2/7/3 6/6/4
f 12/11/5 29/36/6 30/37/7 16/19/8
f 33/40/9 34/41/10 5/5/11 19/23/12
f 25/32/13 26/33/14 18/22/15 1/8/16
s 5
f 3/1/17 4/68/18 8/67/19 7/2/20
s 1
f 11/10/21 12/11/5 16/19/8 15/4/22
f 1/8/16 2/7/3 36/43/2 25/32/13
f 6/6/4 5/5/11 34/41/10 35/42/1
f 28/35/23 29/36/6 12/11/5 11/10/21
f 30/37/7 31/38/24 15/4/22 16/19/8
s 5
f 9/64/25 14/18/26 13/65/27 10/66/28
f 3/1/17 7/2/20 20/24/29 17/21/30
s 1
f 1/8/16 5/5/11 6/6/4 2/7/3
f 18/22/15 19/23/12 5/5/11 1/8/16
f 27/34/31 28/35/23 11/10/21 21/26/32
f 11/10/21 15/4/22 24/31/33 21/26/32
f 31/38/24 32/39/34 24/31/33 15/4/22
s 5
f 22/28/35 23/29/36 14/18/26 9/64/25
s 1
f 26/33/14 27/34/31 21/26/32 18/22/15
s 5
f 17/21/30 20/24/29 23/29/36 22/28/35
s 1
f 32/39/34 33/40/9 19/23/12 24/31/33
f 21/26/32 24/31/33 19/23/12 18/22/15
f 17/20/37 26/33/14 25/32/13 3/15/38
f 22/27/39 27/34/31 26/33/14 17/20/37
f 9/3/40 28/35/23 27/34/31 22/27/39
f 9/3/40 10/17/41 29/36/6 28/35/23
f 30/37/7 29/36/6 10/17/41 13/12/42
f 13/12/42 14/14/43 31/38/24 30/37/7
f 23/30/44 32/39/34 31/38/24 14/14/43
f 20/25/45 33/40/9 32/39/34 23/30/44
f 7/13/46 34/41/10 33/40/9 20/25/45
f 35/42/1 34/41/10 7/13/46 8/16/47
f 4/9/48 36/43/2 35/42/1 8/16/47
f 25/32/13 36/43/2 4/9/48 3/15/38
s off
f 37/44/49 38/45/50 40/62/51 39/47/52
f 41/48/53 42/49/54 44/50/55 43/51/56
f 43/51/57 44/50/58 38/45/59 37/44/60
f 38/45/61 44/50/62 42/52/63 40/46/64
f 43/51/65 37/44/66 39/63/67 41/53/68
f 45/54/69 46/55/70 48/56/71 47/57/72
f 49/58/73 50/59/74 52/60/75 51/61/76
f 51/61/77 52/60/78 46/55/79 45/54/80
f 46/55/81 52/60/82 50/59/83 48/56/84
f 51/61/85 45/54/86 47/57/87 49/58/88
