# This file uses centimeters as units for non-parametric coordinates.

g default
v -16.451970 2.127212 -10.353381
v -16.157947 2.127212 -10.253783
v -16.451970 3.730855 -10.353381
v -16.157947 3.730855 -10.253783
v -15.895975 2.127212 -10.038597
v -15.895975 3.730855 -10.038597
v -15.698226 2.127212 -9.733495
v -15.698226 3.730855 -9.733495
v -15.594805 2.127212 -9.384936
v -15.594805 3.730855 -9.384936
v -15.601457 2.127212 -9.045980
v -15.601457 3.730855 -9.045980
v -15.716799 2.127212 -8.757772
v -15.716799 3.730855 -8.757772
v -16.457088 2.127212 -10.338262
v -16.165574 2.127212 -10.240058
v -16.457088 3.730855 -10.338262
v -16.165574 3.730855 -10.240058
v -15.907738 2.127212 -10.028088
v -15.907738 3.730855 -10.028088
v -15.712575 2.127212 -9.726886
v -15.712575 3.730855 -9.726886
v -15.610435 2.127212 -9.382821
v -15.610435 3.730855 -9.382821
v -15.616846 2.127212 -9.049101
v -15.616846 3.730855 -9.049101
v -15.731617 2.127212 -8.763702
v -15.731617 3.730855 -8.763702
vt 0.986909 0.008656
vt 0.838874 0.017738
vt 0.839955 0.789926
vt 0.991310 0.798172
vt 0.675299 0.018671
vt 0.675985 0.789610
vt 0.499602 0.018426
vt 0.500396 0.790200
vt 0.324013 0.019016
vt 0.324700 0.789955
vt 0.160043 0.018700
vt 0.161124 0.790888
vt 0.008690 0.010454
vt 0.013090 0.799970
vt 0.985960 0.000977
vt 0.838317 0.010326
vt 0.839460 0.797341
vt 0.999023 0.798131
vt 0.994623 0.008618
vt 0.675213 0.011162
vt 0.675939 0.797118
vt 0.499588 0.010867
vt 0.500412 0.797758
vt 0.324059 0.011508
vt 0.324785 0.797463
vt 0.160538 0.011285
vt 0.161681 0.798300
vt 0.000977 0.010495
vt 0.014038 0.807649
vt 0.005377 0.800008
vt 0.009580 0.002768
vt 0.990417 0.805858
vn 0.320834 0.000000 -0.947136
vn 0.320834 0.000000 -0.947136
vn 0.492681 0.000000 -0.870210
vn 0.492681 0.000000 -0.870210
vn 0.749378 0.000000 -0.662143
vn 0.749378 0.000000 -0.662143
vn 0.908234 0.000000 -0.418463
vn 0.908234 0.000000 -0.418463
vn 0.990239 0.000000 -0.139379
vn 0.990239 0.000000 -0.139379
vn 0.981602 0.000000 0.190939
vn 0.981602 0.000000 0.190939
vn 0.928411 0.000000 0.371556
vn 0.928411 0.000000 0.371556
vn 0.000000 -1.000000 0.000000
vn 0.000000 -1.000000 0.000000
vn 0.000000 -1.000000 0.000000
vn 0.000000 -1.000000 0.000000
vn 0.000000 1.000000 -0.000000
vn 0.000000 1.000000 -0.000000
vn 0.000003 1.000000 -0.000002
vn 0.000005 1.000000 -0.000002
vn -0.947206 0.000000 -0.320627
vn -0.947206 0.000000 -0.320627
vn -0.947206 0.000000 -0.320627
vn -0.947206 0.000000 -0.320627
vn 0.000000 -1.000000 0.000000
vn 0.000000 -1.000000 0.000000
vn 0.000004 1.000000 -0.000002
vn 0.000003 1.000000 -0.000002
vn 0.000000 -1.000000 0.000000
vn 0.000000 -1.000000 0.000000
vn 0.000000 1.000000 -0.000000
vn 0.000000 1.000000 -0.000000
vn 0.000000 -1.000000 0.000000
vn 0.000000 -1.000000 0.000000
vn 0.000000 1.000000 -0.000000
vn 0.000000 1.000000 -0.000000
vn 0.000000 -1.000000 0.000000
vn 0.000000 -1.000000 0.000000
vn 0.000002 1.000000 -0.000001
vn 0.000002 1.000000 -0.000001
vn 0.000000 -1.000000 0.000000
vn 0.000000 -1.000000 0.000000
vn -0.371526 0.000000 0.928422
vn -0.371526 0.000000 0.928422
vn -0.371526 0.000000 0.928422
vn -0.371526 0.000000 0.928422
vn 0.000004 1.000000 -0.000002
vn 0.000004 1.000000 -0.000002
s 1
g polySurface8 Cabinet
f 1/1/1 3/4/2 4/3/3 2/2/4
f 2/2/4 4/3/3 6/6/5 5/5/6
f 5/5/6 6/6/5 8/8/7 7/7/8
f 7/7/8 8/8/7 10/10/9 9/9/10
f 9/9/10 10/10/9 12/12/11 11/11/12
f 11/11/12 12/12/11 14/14/13 13/13/14
s 2
f 2/2/15 16/16/16 15/15/17 1/1/18
s 3
f 3/4/19 17/32/20 18/17/21 4/3/22
s off
f 1/1/23 15/19/24 17/18/25 3/4/26
s 2
f 5/5/27 19/20/28 16/16/16 2/2/15
s 3
f 4/3/22 18/17/21 20/21/29 6/6/30
s 2
f 7/7/31 21/22/32 19/20/28 5/5/27
s 3
f 6/6/30 20/21/29 22/23/33 8/8/34
s 2
f 9/9/35 23/24/36 21/22/32 7/7/31
s 3
f 8/8/34 22/23/33 24/25/37 10/10/38
s 2
f 11/11/39 25/26/40 23/24/36 9/9/35
s 3
f 10/10/38 24/25/37 26/27/41 12/12/42
s 2
f 13/13/43 27/31/44 25/26/40 11/11/39
s off
f 14/14/45 28/30/46 27/28/47 13/13/48
s 3
f 12/12/42 26/27/41 28/29/49 14/14/50
