# This file uses centimeters as units for non-parametric coordinates.

g default
v -0.315884 0.131138 0.493154
v 0.293832 0.131138 0.506603
v -0.293832 0.131138 -0.506603
v 0.315884 0.131138 -0.493154
v -0.315884 0.133138 0.493154
v 0.293832 0.133138 0.506603
v 0.315884 0.133138 -0.493154
v -0.293832 0.133138 -0.506603
vt 0.191471 0.001725
vt 0.191261 0.311703
vt 0.190641 0.311703
vt 0.190852 0.001725
vt 0.000977 0.311574
vt 0.001187 0.001596
vt 0.001807 0.001597
vt 0.001597 0.311575
vt 0.380516 0.001853
vt 0.380306 0.311831
vt 0.001807 0.000977
vt 0.190852 0.001105
vt 0.190641 0.312323
vt 0.001596 0.312195
vn -0.000000 1.000000 0.000000
vn -0.000000 1.000000 0.000000
vn -0.000000 1.000000 0.000000
vn -0.000000 1.000000 0.000000
vn 0.000000 -1.000000 0.000000
vn 0.000000 -1.000000 0.000000
vn 0.000000 -1.000000 0.000000
vn 0.000000 -1.000000 0.000000
vn -0.022052 0.000000 0.999757
vn -0.022052 0.000000 0.999757
vn -0.022052 0.000000 0.999757
vn -0.022052 0.000000 0.999757
vn 0.999757 0.000000 0.022052
vn 0.999757 0.000000 0.022052
vn 0.999757 0.000000 0.022052
vn 0.999757 0.000000 0.022052
vn 0.022052 0.000000 -0.999757
vn 0.022052 0.000000 -0.999757
vn 0.022052 0.000000 -0.999757
vn 0.022052 0.000000 -0.999757
vn -0.999757 0.000000 -0.022052
vn -0.999757 0.000000 -0.022052
vn -0.999757 0.000000 -0.022052
vn -0.999757 0.000000 -0.022052
s off
g SingleCard CardStack
f 5/7/1 6/4/2 7/3/3 8/8/4
f 1/9/5 3/10/6 4/2/7 2/1/8
f 1/11/9 2/12/10 6/4/11 5/7/12
f 2/1/13 4/2/14 7/3/15 6/4/16
f 4/13/17 3/14/18 8/8/19 7/3/20
f 3/5/21 1/6/22 5/7/23 8/8/24
g default
v -0.336791 0.043377 0.432517
v 0.271042 0.043377 0.482257
v -0.255232 0.043377 -0.564151
v 0.352602 0.043377 -0.514411
v -0.298797 0.004997 0.510551
v 0.309408 0.004997 0.555519
v -0.225064 0.004997 -0.486727
v 0.383141 0.004997 -0.441759
v -0.264086 0.110094 0.522726
v 0.343837 0.110094 0.474089
v -0.343837 0.110094 -0.474089
v 0.264086 0.110094 -0.522726
v -0.304933 -0.102983 0.500000
v 0.304933 -0.102983 0.500000
v -0.304933 0.128662 0.500000
v 0.304933 0.128662 0.500000
v -0.304933 0.128662 -0.500000
v 0.304933 0.128662 -0.500000
v -0.304933 -0.102983 -0.500000
v 0.304933 -0.102983 -0.500000
v -0.214513 -0.050569 0.464792
v 0.390153 -0.050569 0.385330
v -0.344806 -0.050569 -0.526684
v 0.259860 -0.050569 -0.606145
vt 0.809978 0.391810
vt 0.500000 0.391810
vt 0.500000 0.320005
vt 0.809978 0.320005
vt 0.310955 0.391810
vt 0.000977 0.391810
vt 0.200977 0.399493
vt 0.310955 0.320005
vt 0.001302 0.399493
vt 0.190346 0.399691
vt 0.190021 0.709669
vt 0.000977 0.709471
vt 0.788817 0.000977
vt 0.977862 0.001208
vt 0.977482 0.311186
vt 0.788437 0.310955
vt 0.391074 0.000977
vt 0.580115 0.002275
vt 0.577986 0.312246
vt 0.388945 0.310948
vt 0.589487 0.000977
vt 0.778532 0.001462
vt 0.777736 0.311439
vt 0.588691 0.310954
vt 0.999023 0.391810
vt 0.390022 0.399648
vt 0.999023 0.320005
vt 0.000977 0.320005
vt 0.200723 0.709471
vt 0.389768 0.709626
vn 0.000000 1.000000 0.000000
vn 0.000000 1.000000 0.000000
vn 0.000000 1.000000 0.000000
vn 0.000000 1.000000 0.000000
vn 0.000000 1.000000 0.000000
vn 0.000000 1.000000 0.000000
vn 0.000000 1.000000 0.000000
vn 0.000000 1.000000 0.000000
vn 0.000000 1.000000 -0.000000
vn 0.000000 1.000000 -0.000000
vn 0.000000 1.000000 -0.000000
vn 0.000000 1.000000 -0.000000
vn 0.000000 0.000000 1.000000
vn 0.000000 0.000000 1.000000
vn 0.000000 0.000000 1.000000
vn 0.000000 0.000000 1.000000
vn 0.000000 1.000000 0.000000
vn 0.000000 1.000000 0.000000
vn 0.000000 1.000000 0.000000
vn 0.000000 1.000000 0.000000
vn 0.000000 0.000000 -1.000000
vn 0.000000 0.000000 -1.000000
vn 0.000000 0.000000 -1.000000
vn 0.000000 0.000000 -1.000000
vn 1.000000 0.000000 0.000000
vn 1.000000 0.000000 0.000000
vn 1.000000 0.000000 0.000000
vn 1.000000 0.000000 0.000000
vn -1.000000 0.000000 0.000000
vn -1.000000 0.000000 0.000000
vn -1.000000 0.000000 0.000000
vn -1.000000 0.000000 0.000000
vn 0.000000 1.000000 -0.000000
vn 0.000000 1.000000 -0.000000
vn 0.000000 1.000000 -0.000000
vn 0.000000 1.000000 -0.000000
s off
g CardStack Stack
f 9/23/25 10/24/26 12/25/27 11/26/28
f 13/27/29 14/28/30 16/29/31 15/30/32
f 17/31/33 18/32/34 20/33/35 19/34/36
f 21/39/37 22/15/38 24/18/39 23/41/40
f 23/21/41 24/40/42 26/44/43 25/43/44
f 25/22/45 26/17/46 28/16/47 27/19/48
f 22/15/49 28/16/50 26/17/51 24/18/52
f 27/19/53 21/20/54 23/42/55 25/22/56
f 29/35/57 30/36/58 32/37/59 31/38/60
