# This file uses centimeters as units for non-parametric coordinates.

g default
v 2.339681 2.667961 -1.919547
v 2.370259 2.667961 1.923405
v 2.332345 0.007380 -2.841546
v 2.377594 0.007380 2.845403
vt 0.391241 0.530020
vt 0.738311 0.530011
vt 0.821587 0.770287
vt 0.307979 0.770301
vn 0.999968 -0.000000 -0.007956
vn 0.999968 -0.000000 -0.007956
vn 0.999968 -0.000000 -0.007956
vn 0.999968 -0.000000 -0.007956
s off
g Plane1 DustBunny
f 1/1/1 2/2/2 4/3/3 3/4/4
g default
v 3.586063 2.019456 0.073279
v 4.215327 -0.036707 0.081028
v 1.073032 2.019456 -0.070574
v 0.443768 -0.036707 -0.134867
v 2.329548 2.019456 1.154570
v 2.329548 -0.036707 1.703831
v 2.329548 -0.036707 -1.588216
v 2.329548 2.019456 -1.038955
vt 0.203261 0.046427
vt 0.423300 0.000977
vt 0.419887 0.195142
vt 0.273273 0.225427
vt 0.644172 0.055247
vt 0.825072 0.171465
vt 0.687592 0.308741
vt 0.567057 0.231304
vt 0.000977 0.171563
vt 0.138489 0.308806
vn -0.051420 0.257738 0.964846
vn 0.639304 0.198451 0.742904
vn 0.639304 0.198451 0.742904
vn -0.058255 0.257641 0.964483
vn 0.051337 0.257739 -0.964850
vn -0.597214 0.207001 -0.774910
vn -0.597214 0.207001 -0.774910
vn 0.058361 0.257640 -0.964477
vn 0.649934 0.196138 -0.734245
vn 0.649934 0.196138 -0.734245
vn -0.685683 0.187856 0.703241
vn -0.685683 0.187856 0.703241
s 1
g DustBunny Middle
f 10/5/5 6/6/6 5/7/7 9/8/8
s 2
f 11/9/9 8/10/10 7/11/11 12/12/12
f 6/6/13 11/9/9 12/12/12 5/7/14
s 1
f 8/13/15 10/5/5 9/8/8 7/14/16
g default
v 3.616240 2.450547 1.388865
v 1.093700 2.450547 -1.385007
v 4.268106 0.007380 2.105680
v 0.441834 0.007380 -2.101822
vt 0.395476 0.778378
vt 0.734081 0.778371
vt 0.821587 0.999014
vt 0.307979 0.999023
vn -0.739829 0.000000 0.672795
vn -0.739829 0.000000 0.672795
vn -0.739829 0.000000 0.672795
vn -0.739829 0.000000 0.672795
s off
g DustBunny Plane2
f 13/15/17 14/16/18 16/17/19 15/18/20
g default
v 0.634123 2.631491 1.356795
v 4.075817 2.631491 -1.352937
v 0.120773 -0.098562 1.760969
v 4.589168 -0.098562 -1.757111
vt 0.217515 0.275393
vt 0.613112 0.275381
vt 0.672125 0.521932
vt 0.158517 0.521948
vn -0.618604 0.000000 -0.785703
vn -0.618604 0.000000 -0.785703
vn -0.618604 0.000000 -0.785703
vn -0.618604 0.000000 -0.785703
s off
g DustBunny Plane3
f 17/19/21 18/20/22 20/21/23 19/22/24
