# This file uses centimeters as units for non-parametric coordinates.

g default
v -0.473939 0.203878 0.982683
v 0.473939 0.203878 0.982683
v -0.473939 0.311002 0.982683
v 0.473939 0.311002 0.982683
v -0.473939 0.311002 -0.982683
v 0.473939 0.311002 -0.982683
v -0.473939 0.203878 -0.982683
v 0.473939 0.203878 -0.982683
v 0.375000 0.203878 1.036719
v 0.375000 0.311002 1.036719
v 0.375000 0.311002 -1.036719
v 0.375000 0.203878 -1.036719
v -0.375000 0.203878 1.036719
v -0.375000 0.311002 1.036719
v -0.375000 0.311002 -1.036719
v -0.375000 0.203878 -1.036719
v -0.500000 0.203878 -0.907129
v -0.500000 0.311002 -0.907129
v -0.375000 0.311002 -0.907129
v 0.375000 0.311002 -0.907129
v 0.500000 0.311002 -0.907129
v 0.500000 0.203878 -0.907129
v 0.375000 0.203878 -0.907129
v -0.375000 0.203878 -0.907129
v -0.500000 0.311002 0.907129
v -0.500000 0.203878 0.907129
v -0.375000 0.203878 0.907129
v 0.375000 0.203878 0.907129
v 0.500000 0.203878 0.907129
v 0.500000 0.311002 0.907129
v 0.375000 0.311002 0.907129
v -0.375000 0.311002 0.907129
vt 0.125495 0.943876
vt 0.125503 0.900737
vt 0.856117 0.900867
vt 0.856109 0.944006
vt 0.093318 0.900731
vt 0.093310 0.943870
vt 0.888302 0.900872
vt 0.888295 0.944012
vt 0.072039 0.847907
vt 0.802649 0.845741
vt 0.802777 0.888880
vt 0.072167 0.891046
vt 0.834835 0.845646
vt 0.834963 0.888785
vt 0.039854 0.848002
vt 0.039982 0.891141
vt 0.424870 0.022720
vt 0.464723 0.000977
vt 0.464700 0.053163
vt 0.414362 0.053142
vt 0.766730 0.053293
vt 0.766752 0.001107
vt 0.464385 0.783776
vt 0.414047 0.783755
vt 0.766415 0.783907
vt 0.817068 0.053315
vt 0.806586 0.022884
vt 0.464363 0.835963
vt 0.424529 0.814186
vt 0.766392 0.836093
vt 0.816753 0.783928
vt 0.806245 0.814350
vt 0.001355 0.783959
vt 0.051694 0.783933
vt 0.051721 0.836120
vt 0.011866 0.814380
vt 0.000977 0.053346
vt 0.051315 0.053320
vt 0.353751 0.835963
vt 0.353724 0.783776
vt 0.011456 0.022914
vt 0.051288 0.001133
vt 0.353345 0.053163
vt 0.404062 0.783750
vt 0.393583 0.814182
vt 0.353318 0.000977
vt 0.403683 0.053137
vt 0.393172 0.022716
vt 0.001295 0.952982
vt 0.046693 0.953317
vt 0.046374 0.996455
vt 0.000977 0.996120
vt 0.348395 0.998688
vt 0.348714 0.955550
vt 0.394111 0.955885
vt 0.393792 0.999023
vt 0.404438 0.953647
vt 0.449836 0.953764
vt 0.449726 0.996903
vt 0.404328 0.996786
vt 0.751755 0.997678
vt 0.751865 0.954538
vt 0.797263 0.954655
vt 0.797153 0.997794
vn -0.479319 0.000000 0.877641
vn -0.063522 0.000000 0.997980
vn -0.063522 0.000000 0.997980
vn -0.479319 0.000000 0.877641
vn 0.000000 1.000000 0.000000
vn 0.000000 1.000000 0.000000
vn 0.000000 1.000000 0.000000
vn 0.000000 1.000000 0.000000
vn -0.479319 0.000000 -0.877641
vn -0.063522 0.000000 -0.997980
vn -0.063522 0.000000 -0.997980
vn -0.479319 0.000000 -0.877641
vn 0.000000 -1.000000 0.000000
vn 0.000000 -1.000000 0.000000
vn 0.000000 -1.000000 0.000000
vn 0.000000 -1.000000 0.000000
vn 0.945345 0.000000 0.326073
vn 0.999905 0.000000 0.013789
vn 0.999905 0.000000 0.013789
vn 0.945345 0.000000 0.326073
vn -0.999905 0.000000 0.013789
vn -0.999905 0.000000 0.013789
vn -0.945345 0.000000 0.326073
vn -0.945345 0.000000 0.326073
vn 0.063522 0.000000 0.997980
vn 0.063522 0.000000 0.997980
vn 0.479319 0.000000 0.877641
vn 0.479319 0.000000 0.877641
vn 0.000000 1.000000 0.000000
vn 0.000000 1.000000 0.000000
vn 0.000000 1.000000 0.000000
vn 0.000000 1.000000 0.000000
vn 0.063522 0.000000 -0.997980
vn 0.063522 0.000000 -0.997980
vn 0.479319 0.000000 -0.877641
vn 0.479319 0.000000 -0.877641
vn 0.000000 -1.000000 0.000000
vn 0.000000 -1.000000 0.000000
vn 0.000000 -1.000000 0.000000
vn 0.000000 -1.000000 0.000000
vn -0.945345 0.000000 -0.326073
vn -0.999905 0.000000 -0.013789
vn -0.999905 0.000000 -0.013789
vn -0.945345 0.000000 -0.326073
vn 0.000000 -1.000000 0.000000
vn 0.000000 -1.000000 0.000000
vn 0.000000 -1.000000 0.000000
vn 0.000000 -1.000000 0.000000
vn 0.000000 -1.000000 0.000000
vn 0.000000 -1.000000 0.000000
vn 0.000000 -1.000000 0.000000
vn 0.000000 -1.000000 0.000000
vn 0.999905 0.000000 -0.013789
vn 0.999905 0.000000 -0.013789
vn 0.945345 0.000000 -0.326073
vn 0.945345 0.000000 -0.326073
vn 0.000000 1.000000 0.000000
vn 0.000000 1.000000 0.000000
vn 0.000000 1.000000 0.000000
vn 0.000000 1.000000 0.000000
vn 0.000000 1.000000 0.000000
vn 0.000000 1.000000 0.000000
vn 0.000000 1.000000 0.000000
vn 0.000000 1.000000 0.000000
s 1
g SmartPhone
f 1/49/1 13/50/2 14/51/3 3/52/4
s 2
f 3/17/5 14/18/6 32/19/7 25/20/8
s 3
f 5/57/9 15/58/10 16/59/11 7/60/12
s 4
f 26/33/13 27/34/14 13/35/15 1/36/16
s 5
f 2/15/17 29/9/18 30/12/19 4/16/20
s 6
f 25/4/21 26/3/22 1/7/23 3/8/24
s 1
f 10/53/25 9/54/26 2/55/27 4/56/28
s 2
f 30/26/29 31/21/30 10/22/31 4/27/32
s 3
f 12/61/33 11/62/34 6/63/35 8/64/36
s 4
f 9/39/37 28/40/38 29/44/39 2/45/40
s 1
f 10/53/25 14/51/3 13/50/2 9/54/26
s 2
f 31/21/30 32/19/7 14/18/6 10/22/31
s 3
f 12/61/33 16/59/11 15/58/10 11/62/34
s 4
f 9/39/37 13/35/15 27/34/14 28/40/38
s 6
f 7/5/41 17/2/42 18/1/43 5/6/44
s 4
f 7/41/45 16/42/46 24/38/47 17/37/48
f 23/43/49 24/38/47 16/42/46 12/46/50
f 22/47/51 23/43/49 12/46/50 8/48/52
s 5
f 21/11/53 22/10/54 8/13/55 6/14/56
s 2
f 11/30/57 20/25/58 21/31/59 6/32/60
f 11/30/57 15/28/61 19/23/62 20/25/58
f 18/24/63 19/23/62 15/28/61 5/29/64
s 6
f 18/1/43 17/2/42 26/3/22 25/4/21
s 2
f 19/23/62 18/24/63 25/20/8 32/19/7
f 20/25/58 19/23/62 32/19/7 31/21/30
f 21/31/59 20/25/58 31/21/30 30/26/29
s 5
f 29/9/18 22/10/54 21/11/53 30/12/19
s 4
f 28/40/38 23/43/49 22/47/51 29/44/39
f 27/34/14 24/38/47 23/43/49 28/40/38
f 26/33/13 17/37/48 24/38/47 27/34/14
