# This file uses centimeters as units for non-parametric coordinates.

g default
v -4.616315 -0.140776 2.342586
v 4.581068 -0.140776 2.342586
v -4.616315 -0.140776 2.239602
v 4.581068 -0.140776 2.239602
v -4.616315 -0.053467 2.316843
v -4.616315 -0.079211 2.342586
v 4.581068 -0.053467 2.316843
v 4.581068 -0.079211 2.342586
v -4.616315 -0.079211 2.239602
v -4.616315 -0.053467 2.265345
v 4.581068 -0.079211 2.239602
v 4.581068 -0.053467 2.265345
v -4.631657 -0.303567 2.677094
v 4.631657 -0.303567 2.677094
v -4.631657 -0.303567 1.908123
v 4.631657 -0.303567 1.908123
v -4.542240 0.125032 2.499356
v 4.542240 0.125032 2.499356
v 4.542240 0.125032 2.085861
v -4.542240 0.125032 2.085861
v -4.542240 -0.118707 2.499356
v 4.542240 -0.118707 2.499356
v 4.542240 -0.118707 2.085861
v -4.542240 -0.118707 2.085861
v -4.631657 0.082176 2.677094
v -4.588802 0.125032 2.634238
v 4.631657 0.082176 2.677094
v 4.588802 0.125032 2.634238
v -4.631657 0.082176 1.908123
v -4.588802 0.125032 1.950979
v 4.631657 0.082176 1.908123
v 4.588802 0.125032 1.950979
v -4.616315 -0.140776 2.342586
v 4.581068 -0.140776 2.342586
v -4.616315 -0.140776 2.239602
v 4.581068 -0.140776 2.239602
v -4.616315 -0.053467 2.316843
v -4.616315 -0.079211 2.342586
v 4.581068 -0.053467 2.316843
v 4.581068 -0.079211 2.342586
v -4.616315 -0.079211 2.239602
v -4.616315 -0.053467 2.265345
v 4.581068 -0.079211 2.239602
v 4.581068 -0.053467 2.265345
v -4.616315 -0.140776 2.342586
v 4.581068 -0.140776 2.342586
v -4.616315 -0.140776 2.239602
v 4.581068 -0.140776 2.239602
v -4.616315 -0.053467 2.316843
v -4.616315 -0.079211 2.342586
v 4.581068 -0.053467 2.316843
v 4.581068 -0.079211 2.342586
v -4.616315 -0.079211 2.239602
v -4.616315 -0.053467 2.265345
v 4.581068 -0.079211 2.239602
v 4.581068 -0.053467 2.265345
vt 0.110760 -0.000000
vt 0.089695 0.988555
vt 0.117377 0.000141
vt 0.109674 0.988981
vt 0.137356 0.000567
vt 0.116291 0.989122
vt 0.100226 0.988779
vt 0.126826 0.000342
vt 0.096313 0.988696
vt 0.121290 0.000224
vt 0.105761 0.988897
vt 0.130739 0.000426
vt 0.139183 0.976643
vt 0.139183 0.000001
vt 0.183636 0.000001
vt 0.183636 0.976643
vt 0.272179 0.976643
vt 0.272179 0.000001
vt 0.298383 0.000001
vt 0.298383 0.976643
vt 0.440658 0.000001
vt 0.440658 0.044454
vt 0.414455 0.044454
vt 0.414455 0.000001
vt 0.326219 0.000001
vt 0.326219 0.976644
vt 0.300016 0.976644
vt 0.300016 0.000001
vt 0.468495 0.000001
vt 0.468495 0.044454
vt 0.442291 0.044454
vt 0.442291 0.000001
vt 0.000000 0.999349
vt 0.006448 0.993751
vt 0.080125 0.994213
vt 0.086461 1.000000
vt 0.007509 0.000001
vt 0.013845 0.005788
vt 0.093970 0.000651
vt 0.087522 0.006250
vt 0.228878 0.995869
vt 0.228878 0.000001
vt 0.270348 0.000001
vt 0.270348 0.995869
vt 0.185577 0.995869
vt 0.185577 0.000001
vt 0.227047 0.000001
vt 0.227047 0.995869
vt 0.371153 0.082652
vt 0.372843 0.000000
vt 0.414304 0.000848
vt 0.412615 0.083500
vt 0.327852 0.082652
vt 0.329542 0.000000
vt 0.371003 0.000848
vt 0.369314 0.083500
vt 0.028351 0.010919
vt 0.021032 0.988806
vt 0.072938 0.011195
vt 0.065619 0.989082
vn 0.000000 0.000000 1.000000
vn 0.000000 0.000000 1.000000
vn 0.000000 0.000000 1.000000
vn 0.000000 0.000000 1.000000
vn 0.000000 1.000000 0.000000
vn 0.000000 1.000000 0.000000
vn 0.000000 1.000000 0.000000
vn 0.000000 1.000000 0.000000
vn 0.000000 0.000000 -1.000000
vn 0.000000 0.000000 -1.000000
vn 0.000000 0.000000 -1.000000
vn 0.000000 0.000000 -1.000000
vn 0.000000 0.707103 0.707111
vn 0.000000 0.707103 0.707111
vn 0.000000 0.707103 0.707111
vn 0.000000 0.707103 0.707111
vn 0.000000 0.707100 -0.707114
vn 0.000000 0.707100 -0.707114
vn 0.000000 0.707100 -0.707114
vn 0.000000 0.707100 -0.707114
vn 0.000000 1.000000 0.000000
vn 0.000000 1.000000 0.000000
vn 0.000000 1.000000 0.000000
vn 0.000000 1.000000 0.000000
vn 0.000000 0.000000 -1.000000
vn 0.000000 0.000000 -1.000000
vn 0.000000 0.000000 -1.000000
vn 0.000000 0.000000 -1.000000
vn -1.000000 0.000000 0.000000
vn -1.000000 0.000000 0.000000
vn -1.000000 0.000000 0.000000
vn -1.000000 0.000000 0.000000
vn 0.000000 0.000000 1.000000
vn 0.000000 0.000000 1.000000
vn 0.000000 0.000000 1.000000
vn 0.000000 0.000000 1.000000
vn 1.000000 0.000000 0.000000
vn 1.000000 0.000000 0.000000
vn 1.000000 0.000000 0.000000
vn 1.000000 0.000000 0.000000
vn -0.707115 0.707099 0.000000
vn -0.707115 0.707099 0.000000
vn -0.707115 0.707099 0.000000
vn -0.707115 0.707099 0.000000
vn 0.000000 0.707108 0.707106
vn 0.000000 0.707108 0.707106
vn 0.000000 0.707108 0.707106
vn 0.000000 0.707108 0.707106
vn 0.707115 0.707099 0.000000
vn 0.707115 0.707099 0.000000
vn 0.707115 0.707099 0.000000
vn 0.707115 0.707099 0.000000
vn 0.000000 0.707108 -0.707106
vn 0.000000 0.707108 -0.707106
vn 0.000000 0.707108 -0.707106
vn 0.000000 0.707108 -0.707106
vn 0.000000 0.000000 1.000000
vn 0.000000 0.000000 1.000000
vn 0.000000 0.000000 1.000000
vn 0.000000 0.000000 1.000000
vn 0.000000 0.000000 -1.000000
vn 0.000000 0.000000 -1.000000
vn 0.000000 0.000000 -1.000000
vn 0.000000 0.000000 -1.000000
vn 1.000000 0.000000 0.000000
vn 1.000000 0.000000 0.000000
vn 1.000000 0.000000 0.000000
vn 1.000000 0.000000 0.000000
vn -1.000000 0.000000 0.000000
vn -1.000000 0.000000 0.000000
vn -1.000000 0.000000 0.000000
vn -1.000000 0.000000 0.000000
vn 0.000000 1.000000 0.000000
vn 0.000000 1.000000 0.000000
vn 0.000000 1.000000 0.000000
vn 0.000000 1.000000 0.000000
vn 0.000000 1.000000 -0.000000
vn 0.000000 1.000000 -0.000000
vn 0.000000 1.000000 -0.000000
vn 0.000000 1.000000 -0.000000
vn 0.000000 0.000000 1.000000
vn 0.000000 0.000000 1.000000
vn 0.000000 0.000000 1.000000
vn 0.000000 0.000000 1.000000
vn 0.000000 1.000000 0.000000
vn 0.000000 1.000000 0.000000
vn 0.000000 1.000000 0.000000
vn 0.000000 1.000000 0.000000
vn 0.000000 0.000000 -1.000000
vn 0.000000 0.000000 -1.000000
vn 0.000000 0.000000 -1.000000
vn 0.000000 0.000000 -1.000000
vn -1.000000 -0.000001 0.000000
vn -1.000000 -0.000001 0.000000
vn -1.000000 -0.000004 0.000000
vn -1.000000 -0.000004 0.000000
vn 0.000000 0.707103 0.707111
vn 0.000000 0.707103 0.707111
vn 0.000000 0.707103 0.707111
vn 0.000000 0.707103 0.707111
vn 0.000000 0.707100 -0.707114
vn 0.000000 0.707100 -0.707114
vn 0.000000 0.707100 -0.707114
vn 0.000000 0.707100 -0.707114
vn -1.000000 0.000000 0.000000
vn -1.000000 0.000000 0.000000
vn 0.000000 0.000000 1.000000
vn 0.000000 0.000000 1.000000
vn 0.000000 0.000000 1.000000
vn 0.000000 0.000000 1.000000
vn 0.000000 1.000000 0.000000
vn 0.000000 1.000000 0.000000
vn 0.000000 1.000000 0.000000
vn 0.000000 1.000000 0.000000
vn 0.000000 0.000000 -1.000000
vn 0.000000 0.000000 -1.000000
vn 0.000000 0.000000 -1.000000
vn 0.000000 0.000000 -1.000000
vn 1.000000 0.000000 0.000000
vn 1.000000 0.000000 0.000000
vn 1.000000 0.000000 0.000000
vn 1.000000 0.000000 0.000000
vn -1.000000 -0.000001 0.000000
vn -1.000000 -0.000001 0.000000
vn -1.000000 -0.000004 0.000000
vn -1.000000 -0.000004 0.000000
vn 0.000000 0.707103 0.707111
vn 0.000000 0.707103 0.707111
vn 0.000000 0.707103 0.707111
vn 0.000000 0.707103 0.707111
vn 0.000000 0.707100 -0.707114
vn 0.000000 0.707100 -0.707114
vn 0.000000 0.707100 -0.707114
vn 0.000000 0.707100 -0.707114
vn -1.000000 0.000000 0.000000
vn -1.000000 0.000000 0.000000
s off
g ChairSlideWire4
f 1/2/1 2/1/2 8/3/3 6/9/4
f 5/7/5 7/10/6 12/8/7 10/11/8
f 9/4/9 11/12/10 4/5/11 3/6/12
f 5/7/13 6/9/14 8/3/15 7/10/16
f 9/4/17 10/11/18 12/8/19 11/12/20
f 21/13/21 22/14/22 23/15/23 24/16/24
f 17/17/25 18/18/26 22/19/27 21/20/28
f 18/21/29 19/22/30 23/23/31 22/24/32
f 19/25/33 20/26/34 24/27/35 23/28/36
f 20/29/37 17/30/38 21/31/39 24/32/40
f 25/33/41 26/34/42 30/35/43 29/36/44
f 26/34/45 25/33/46 27/37/47 28/38/48
f 28/38/49 27/37/50 31/39/51 32/40/52
f 29/36/53 30/35/54 32/40/55 31/39/56
f 13/41/57 14/42/58 27/43/59 25/44/60
f 29/45/61 31/46/62 16/47/63 15/48/64
f 14/49/65 16/50/66 31/51/67 27/52/68
f 15/53/69 13/54/70 25/55/71 29/56/72
s 1
f 26/34/73 28/38/74 18/57/75 17/58/76
f 28/38/74 32/40/77 19/59/78 18/57/75
f 32/40/77 30/35/79 20/60/80 19/59/78
f 30/35/79 26/34/73 17/58/76 20/60/80
s off
f 33//81 34//82 40//83 38//84
f 37//85 39//86 44//87 42//88
f 41//89 43//90 36//91 35//92
s 2
f 41//93 38//94 37//95 42//96
s off
f 37//97 38//98 40//99 39//100
f 41//101 42//102 44//103 43//104
s 2
f 35//105 33//106 38//94 41//93
s off
f 45//107 46//108 52//109 50//110
f 49//111 51//112 56//113 54//114
f 53//115 55//116 48//117 47//118
f 52//119 55//120 56//121 51//122
s 3
f 53//123 50//124 49//125 54//126
s off
f 49//127 50//128 52//129 51//130
f 53//131 54//132 56//133 55//134
s 3
f 47//135 45//136 50//124 53//123
