# This file uses centimeters as units for non-parametric coordinates.

g default
v -13.732045 1.386535 -19.384945
v -13.676033 1.363335 -19.384945
v -13.676033 1.386535 -19.327098
v -13.676033 1.442547 -19.303137
v -13.732045 1.442547 -19.327098
v -13.755245 1.442547 -19.384945
v -10.592807 1.386535 -19.384945
v -10.569607 1.442547 -19.384945
v -10.592807 1.442547 -19.327098
v -10.648819 1.442547 -19.303137
v -10.648819 1.386535 -19.327098
v -10.648819 1.363335 -19.384945
v -13.732045 1.604202 -19.384945
v -13.755245 1.548190 -19.384945
v -13.732045 1.548190 -19.327098
v -13.676033 1.548190 -19.303137
v -13.676033 1.604202 -19.327098
v -13.676033 1.627403 -19.384945
v -10.592807 1.604202 -19.384945
v -10.648819 1.627403 -19.384945
v -10.648819 1.604202 -19.327098
v -10.648819 1.548190 -19.303137
v -10.592807 1.548190 -19.327098
v -10.569607 1.548190 -19.384945
v -13.732045 1.548190 -20.864128
v -13.755245 1.548190 -20.806282
v -13.732045 1.604202 -20.806282
v -13.676033 1.627403 -20.806282
v -13.676033 1.604202 -20.864128
v -13.676033 1.548190 -20.888089
v -10.592807 1.548190 -20.864128
v -10.648819 1.548190 -20.888089
v -10.648819 1.604202 -20.864128
v -10.648819 1.627403 -20.806282
v -10.592807 1.604202 -20.806282
v -10.569607 1.548190 -20.806282
v -13.732045 1.386535 -20.806282
v -13.755245 1.442547 -20.806282
v -13.732045 1.442547 -20.864128
v -13.676033 1.442547 -20.888089
v -13.676033 1.386535 -20.864128
v -13.676033 1.363335 -20.806282
v -10.592807 1.386535 -20.806282
v -10.648819 1.363335 -20.806282
v -10.648819 1.386535 -20.864128
v -10.648819 1.442547 -20.888089
v -10.592807 1.442547 -20.864128
v -10.569607 1.442547 -20.806282
v -13.721750 1.396830 -19.337730
v -10.603102 1.396830 -19.337730
v -13.721750 1.593908 -19.337730
v -10.603102 1.593908 -19.337730
v -13.721750 1.593908 -20.853497
v -10.603102 1.593908 -20.853497
v -13.721750 1.396830 -20.853497
v -10.603102 1.396830 -20.853497
v -12.162426 1.386477 -19.327098
v -12.162426 1.433850 -19.303137
v -12.157473 1.500616 -19.303099
v -12.151201 1.556275 -19.327061
v -12.148642 1.579333 -19.384908
v -12.146568 1.607868 -20.806245
v -12.149220 1.584818 -20.864091
v -12.155529 1.529162 -20.888051
v -12.162426 1.442547 -20.888089
v -12.162426 1.386535 -20.864128
v -12.162426 1.363335 -20.806282
v -12.162426 1.363335 -19.384945
v -13.732045 1.386535 -20.095613
v -13.676033 1.363335 -20.095613
v -10.648819 1.363335 -20.095613
v -10.592807 1.386535 -20.095613
v -10.569607 1.442498 -20.095613
v -10.569607 1.531202 -20.095613
v -10.592807 1.580345 -20.095613
v -10.648819 1.603546 -20.095613
v -12.058005 1.561247 -20.193073
v -13.676033 1.608262 -20.095613
v -13.732045 1.590571 -20.095613
v -13.755245 1.543393 -20.095613
v -13.755245 1.442547 -20.095613
vt 0.484780 0.028895
vt 0.500170 0.031515
vt 0.499296 0.218168
vt 0.483256 0.218141
vt 0.495039 0.011121
vt 0.503790 0.019350
vt 0.515700 0.032624
vt 0.515465 0.218170
vt 0.499535 0.404660
vt 0.483969 0.407238
vt 0.512955 0.000977
vt 0.515645 0.017048
vt 0.542419 0.218199
vt 0.542754 0.032481
vt 0.515136 0.403745
vt 0.494196 0.424821
vt 0.503029 0.416775
vt 0.545728 0.001761
vt 0.542902 0.016822
vt 0.542182 0.403952
vt 0.558301 0.031426
vt 0.556471 0.218218
vt 0.514866 0.419435
vt 0.511948 0.434488
vt 0.563506 0.011304
vt 0.554734 0.019381
vt 0.557709 0.405137
vt 0.542145 0.419481
vt 0.573721 0.028867
vt 0.572103 0.218234
vt 0.544751 0.435554
vt 0.573114 0.407741
vt 0.554028 0.417256
vt 0.562755 0.425506
vt 0.416935 0.403845
vt 0.401343 0.404856
vt 0.399976 0.218330
vt 0.416135 0.218203
vt 0.416784 0.419533
vt 0.404923 0.416951
vt 0.385793 0.407529
vt 0.383934 0.218430
vt 0.399027 0.031639
vt 0.414566 0.032598
vt 0.439850 0.218043
vt 0.443976 0.403843
vt 0.444075 0.419370
vt 0.413978 0.434605
vt 0.396144 0.425056
vt 0.383612 0.029169
vt 0.414381 0.017026
vt 0.402542 0.019436
vt 0.441610 0.032235
vt 0.459515 0.404898
vt 0.454381 0.217947
vt 0.455946 0.417041
vt 0.446818 0.435420
vt 0.393716 0.011288
vt 0.441648 0.016579
vt 0.411557 0.000977
vt 0.457152 0.031066
vt 0.474955 0.407294
vt 0.470520 0.217835
vt 0.464757 0.425199
vt 0.453505 0.019055
vt 0.444365 0.001500
vt 0.472567 0.028471
vt 0.462233 0.010932
vt 0.002956 0.795285
vt 0.001775 0.394882
vt 0.213454 0.370640
vt 0.189195 0.794624
vt 0.187253 0.001465
vt 0.000977 0.001689
vt 0.374562 0.393498
vt 0.375439 0.794242
vt 0.373583 0.000977
vt 0.101021 0.934805
vt 0.101174 0.918849
vt 0.497598 0.922619
vt 0.497523 0.936528
vt 0.101328 0.902525
vt 0.497686 0.906298
vt 0.894041 0.923123
vt 0.894022 0.939080
vt 0.498726 0.954029
vt 0.100743 0.962470
vt 0.894063 0.906797
vt 0.894003 0.966746
vt 0.100621 0.978424
vt 0.500285 0.969916
vt 0.893953 0.982700
vt 0.100776 0.994749
vt 0.500866 0.986234
vt 0.893617 0.999023
vt 0.001165 0.835539
vt 0.001016 0.819583
vt 0.401055 0.820521
vt 0.399537 0.836409
vt 0.000977 0.803257
vt 0.401610 0.804203
vt 0.794100 0.812807
vt 0.794223 0.828763
vt 0.397925 0.859116
vt 0.001452 0.863208
vt 0.793858 0.796482
vt 0.794409 0.856433
vt 0.001616 0.879166
vt 0.398061 0.875075
vt 0.794517 0.872390
vt 0.001785 0.895491
vt 0.398200 0.891401
vt 0.794628 0.888716
vn -0.125133 -0.956423 0.263812
vn -0.695627 -0.718070 0.021867
vn -0.707106 -0.707108 0.000000
vn -0.382679 -0.923881 0.000000
vn -0.989536 -0.141647 0.027473
vn -0.989554 -0.144160 0.000000
vn -0.016054 -0.160107 0.986969
vn -0.011014 -0.743060 0.669134
vn -0.000000 -0.737797 0.675022
vn -0.000000 -0.180541 0.983567
vn 0.000000 -0.928294 0.371846
vn -0.712497 -0.112277 0.692634
vn -0.712497 0.112277 0.692634
vn -0.988338 0.149944 0.026552
vn -0.009466 0.209294 0.977807
vn 0.988770 -0.146706 0.028466
vn 0.695522 -0.718172 0.021877
vn 0.706997 -0.707216 0.000000
vn 0.988713 -0.149819 0.000000
vn 0.125133 -0.956423 0.263812
vn 0.382679 -0.923881 0.000000
vn 0.016096 -0.160528 0.986900
vn 0.712496 -0.112277 0.692635
vn 0.712496 0.112277 0.692635
vn 0.009547 0.209278 0.977810
vn 0.985748 0.166333 0.025179
vn -0.641120 0.767396 0.008234
vn -0.694891 0.719115 0.000000
vn -0.989688 0.143239 0.000000
vn 0.018135 0.999835 0.000904
vn 0.012328 0.999895 0.007633
vn 0.013759 0.783720 0.620962
vn 0.000059 0.653146 0.757232
vn 0.001609 0.999957 0.009174
vn 0.000033 0.122658 0.992449
vn -0.016585 0.999854 -0.004151
vn 0.645378 0.763863 -0.000769
vn 0.726709 0.686946 0.000000
vn -0.009609 0.999935 0.006192
vn 0.990722 0.135902 0.000000
vn -0.988338 0.149944 -0.026552
vn -0.927733 0.101076 -0.359298
vn -0.927733 -0.101075 -0.359299
vn -0.989536 -0.141647 -0.027473
vn -0.379421 0.105555 -0.919183
vn -0.012495 0.172654 -0.984903
vn -0.014340 -0.153668 -0.988018
vn -0.379421 -0.105554 -0.919183
vn -0.000841 0.750897 -0.660419
vn 0.000023 0.692157 -0.721747
vn 0.000012 0.137871 -0.990450
vn 0.009555 0.999833 0.015609
vn 0.001472 0.999909 0.013425
vn 0.012607 0.172106 -0.984998
vn 0.712497 0.112277 -0.692634
vn 0.712497 -0.112277 -0.692634
vn 0.014383 -0.154127 -0.987946
vn 0.985748 0.166333 -0.025179
vn 0.988770 -0.146706 -0.028466
vn -0.125109 -0.956341 -0.264119
vn -0.010134 -0.724375 -0.689332
vn 0.000000 -0.718410 -0.695620
vn 0.000000 -0.928133 -0.372250
vn 0.000000 -0.155456 -0.987843
vn -0.000179 0.999930 0.011844
vn -0.626150 -0.460339 0.629304
vn 0.011014 -0.743060 0.669134
vn 0.626150 -0.460339 0.629305
vn -0.626150 0.460339 0.629305
vn 0.626150 0.460339 0.629305
vn -0.013997 0.784887 0.619481
vn -0.626150 0.460339 -0.629305
vn -0.641120 0.767396 -0.008234
vn 0.645378 0.763863 0.000769
vn 0.626150 0.460339 -0.629305
vn 0.000850 0.751096 -0.660192
vn -0.007632 0.999773 0.019894
vn -0.695627 -0.718070 -0.021867
vn -0.626150 -0.460339 -0.629305
vn 0.695522 -0.718172 -0.021877
vn 0.626150 -0.460339 -0.629304
vn 0.125109 -0.956341 -0.264119
vn 0.010134 -0.724375 -0.689332
s 1
g Matress Bed
f 2/1/1 1/2/2 69/3/3 70/4/4
f 1/2/2 6/7/5 81/8/6 69/3/3
f 4/78/7 3/79/8 57/80/9 58/81/10
f 3/79/8 2/82/1 68/83/11 57/80/9
f 6/7/5 5/12/12 15/19/13 14/14/14
f 5/12/12 4/11/7 16/18/15 15/19/13
f 8/35/16 7/36/17 72/37/18 73/38/19
f 7/36/17 12/41/20 71/42/21 72/37/18
f 10/48/22 9/39/23 23/47/24 22/57/25
f 9/39/23 8/35/16 24/46/26 23/47/24
f 14/14/14 13/21/27 79/22/28 80/13/29
f 13/21/27 18/29/30 78/30/31 79/22/28
f 18/93/30 17/90/32 60/91/33 61/94/34
f 17/90/32 16/87/15 59/86/35 60/91/33
f 20/62/36 19/54/37 75/55/38 76/63/39
f 19/54/37 24/46/26 74/45/40 75/55/38
f 26/20/41 25/28/42 39/23/43 38/15/44
f 25/28/45 30/31/46 40/24/47 39/23/48
f 30/96/46 29/97/49 63/98/50 64/99/51
f 29/97/49 28/100/52 62/101/53 63/98/50
f 32/66/54 31/59/55 47/51/56 46/60/57
f 31/59/55 36/53/58 48/44/59 47/51/56
f 42/111/60 41/108/61 66/109/62 67/112/63
f 41/108/61 40/105/47 65/104/64 66/109/62
f 4/78/7 58/81/10 59/86/35 16/87/15
f 18/69/30 61/70/34 77/71/65 78/72/31
f 30/96/46 64/99/51 65/104/64 40/105/47
f 8/35/16 73/38/19 74/45/40 24/46/26
f 80/13/29 81/8/6 6/7/5 14/14/14
f 5/12/12 6/7/5 1/2/2 49/6/66
f 1/2/2 2/1/1 3/5/8 49/6/66
f 3/5/8 4/11/7 5/12/12 49/6/66
f 11/49/67 12/41/20 7/36/17 50/40/68
f 7/36/17 8/35/16 9/39/23 50/40/68
f 9/39/23 10/48/22 11/49/67 50/40/68
f 17/25/32 18/29/30 13/21/27 51/26/69
f 13/21/27 14/14/14 15/19/13 51/26/69
f 15/19/13 16/18/15 17/25/32 51/26/69
f 23/47/24 24/46/26 19/54/37 52/56/70
f 19/54/37 20/62/36 21/64/71 52/56/70
f 21/64/71 22/57/25 23/47/24 52/56/70
f 29/34/49 30/31/46 25/28/45 53/33/72
f 25/28/42 26/20/41 27/27/73 53/33/72
f 27/27/73 28/32/52 29/34/49 53/33/72
f 35/61/74 36/53/58 31/59/55 54/65/75
f 31/59/55 32/66/54 33/68/76 54/65/75
f 33/68/76 34/67/77 35/61/74 54/65/75
f 41/16/61 42/10/60 37/9/78 55/17/79
f 37/9/78 38/15/44 39/23/43 55/17/79
f 39/23/48 40/24/47 41/16/61 55/17/79
f 47/51/56 48/44/59 43/43/80 56/52/81
f 43/43/80 44/50/82 45/58/83 56/52/81
f 45/58/83 46/60/57 47/51/56 56/52/81
f 58/81/10 57/80/9 11/84/67 10/85/22
f 59/86/35 58/81/10 10/85/22 22/89/25
f 60/91/33 59/86/35 22/89/25 21/92/71
f 61/94/34 60/91/33 21/92/71 20/95/36
f 76/73/39 77/71/65 61/70/34 20/74/36
f 63/98/50 62/101/53 34/106/77 33/102/76
f 64/99/51 63/98/50 33/102/76 32/103/54
f 65/104/64 64/99/51 32/103/54 46/107/57
f 66/109/62 65/104/64 46/107/57 45/110/83
f 67/112/63 66/109/62 45/110/83 44/113/82
f 57/80/9 68/83/11 12/88/20 11/84/67
f 70/4/4 69/3/3 37/9/78 42/10/60
f 72/37/18 71/42/21 44/50/82 43/43/80
f 73/38/19 72/37/18 43/43/80 48/44/59
f 74/45/40 73/38/19 48/44/59 36/53/58
f 75/55/38 74/45/40 36/53/58 35/61/74
f 76/63/39 75/55/38 35/61/74 34/67/77
f 62/75/53 77/71/65 76/73/39 34/77/77
f 78/72/31 77/71/65 62/75/53 28/76/52
f 79/22/28 78/30/31 28/32/52 27/27/73
f 80/13/29 79/22/28 27/27/73 26/20/41
f 38/15/44 81/8/6 80/13/29 26/20/41
f 69/3/3 81/8/6 38/15/44 37/9/78
