# This file uses centimeters as units for non-parametric coordinates.

g default
v 5.000000 8.548828 0.150628
v 4.121094 5.820312 0.150628
v 1.255859 5.841797 0.150628
v 3.574219 4.164062 0.150628
v 2.687500 1.441406 0.150628
v 5.000000 3.126953 0.150628
v 7.312500 1.441406 0.150628
v 6.412109 4.156250 0.150628
v 8.730469 5.833984 0.150628
v 5.880859 5.833984 0.150628
v 5.000000 8.548828 0.849372
v 4.121094 5.820312 0.849372
v 1.255859 5.841797 0.849372
v 3.574219 4.164062 0.849372
v 2.687500 1.441406 0.849372
v 5.000000 3.126953 0.849372
v 7.312500 1.441406 0.849372
v 6.412109 4.156250 0.849372
v 8.730469 5.833984 0.849372
v 5.880859 5.833984 0.849372
vt 0.000977 0.414873
vt 0.000977 0.187467
vt 0.084321 0.187467
vt 0.084321 0.414873
vt 0.693130 0.595545
vt 0.693130 0.343023
vt 0.785878 0.343023
vt 0.785878 0.595545
vt 0.693130 0.751152
vt 0.785878 0.751152
vt 0.093782 0.591370
vt 0.093782 0.843321
vt 0.000977 0.843321
vt 0.000977 0.591370
vt 0.093782 0.999023
vt 0.000977 0.999023
vt 0.187184 0.621947
vt 0.187184 0.848291
vt 0.103811 0.848291
vt 0.103811 0.621947
vt 0.177214 0.187467
vt 0.177214 0.420449
vt 0.095900 0.420449
vt 0.095900 0.187467
vt 0.497581 0.723338
vt 0.497581 0.955047
vt 0.416269 0.955047
vt 0.416269 0.723338
vt 0.265061 0.464640
vt 0.265061 0.187446
vt 0.428262 0.412963
vt 0.692347 0.325378
vt 0.528386 0.550325
vt 0.692347 0.775272
vt 0.427502 0.689017
vt 0.264301 0.914534
vt 0.266391 0.635820
vt 0.000977 0.550325
vt 0.106924 0.000977
vt 0.106924 0.179556
vt 0.000977 0.179556
vt 0.000977 0.000977
vt 0.106924 0.000977
vt 0.000977 0.000977
vn -0.000000 0.000000 -1.000000
vn -0.000000 0.000000 -1.000000
vn -0.000000 0.000000 -1.000000
vn -0.951837 0.306605 0.000000
vn -0.951837 0.306605 0.000000
vn -0.951837 0.306605 0.000000
vn -0.951837 0.306605 0.000000
vn 0.007498 0.999972 0.000000
vn 0.007498 0.999972 0.000000
vn 0.007498 0.999972 0.000000
vn 0.007498 0.999972 0.000000
vn -0.586263 -0.810121 0.000000
vn -0.586263 -0.810121 0.000000
vn -0.586263 -0.810121 0.000000
vn -0.586263 -0.810121 0.000000
vn -0.950844 0.309672 0.000000
vn -0.950844 0.309672 0.000000
vn -0.950844 0.309672 0.000000
vn -0.950844 0.309672 0.000000
vn 0.589024 -0.808116 0.000000
vn 0.589024 -0.808116 0.000000
vn 0.589024 -0.808116 0.000000
vn 0.589024 -0.808116 0.000000
vn -0.589024 -0.808116 0.000000
vn -0.589024 -0.808116 0.000000
vn -0.589024 -0.808116 0.000000
vn -0.589024 -0.808116 0.000000
vn 0.949160 0.314794 0.000000
vn 0.949160 0.314794 0.000000
vn 0.949160 0.314794 0.000000
vn 0.949160 0.314794 0.000000
vn 0.586263 -0.810121 0.000000
vn 0.586263 -0.810121 0.000000
vn 0.586263 -0.810121 0.000000
vn 0.586263 -0.810121 0.000000
vn 0.000000 1.000000 0.000000
vn 0.000000 1.000000 0.000000
vn 0.000000 1.000000 0.000000
vn 0.000000 1.000000 0.000000
vn 0.951185 0.308622 0.000000
vn 0.951185 0.308622 0.000000
vn 0.951185 0.308622 0.000000
vn 0.951185 0.308622 0.000000
vn -0.000000 0.000000 -1.000000
vn -0.000000 0.000000 -1.000000
vn -0.000000 0.000000 -1.000000
vn -0.000000 -0.000000 -1.000000
vn -0.000000 -0.000000 -1.000000
vn -0.000000 -0.000000 -1.000000
vn 0.000000 -0.000000 -1.000000
vn 0.000000 -0.000000 -1.000000
vn 0.000000 -0.000000 -1.000000
vn 0.000000 0.000000 -1.000000
vn 0.000000 0.000000 -1.000000
vn 0.000000 0.000000 -1.000000
vn 0.000000 -0.000000 -1.000000
vn 0.000000 -0.000000 -1.000000
vn 0.000000 -0.000000 -1.000000
vn 0.000000 0.000000 -1.000000
vn 0.000000 0.000000 -1.000000
vn 0.000000 0.000000 -1.000000
vn 0.000000 0.000000 -1.000000
vn 0.000000 0.000000 -1.000000
vn 0.000000 0.000000 -1.000000
s off
g svgMesh1
f 10/29/1 8/31/2 6/33/3
f 1/1/4 2/2/5 12/3/6 11/4/7
f 2/21/8 3/22/9 13/23/10 12/24/11
f 3/9/12 4/5/13 14/8/14 13/10/15
f 4/5/16 5/6/17 15/7/18 14/8/19
f 5/39/20 6/40/21 16/41/22 15/42/23
f 6/40/24 7/43/25 17/44/26 16/41/27
f 7/11/28 8/12/29 18/13/30 17/14/31
f 8/12/32 9/15/33 19/16/34 18/13/35
f 9/25/36 10/26/37 20/27/38 19/28/39
f 10/17/40 1/18/41 11/19/42 20/20/43
f 10/29/44 9/30/45 8/31/46
f 6/33/47 8/31/48 7/32/49
f 4/35/50 6/33/51 5/34/52
f 2/37/53 4/35/54 3/36/55
f 10/29/56 2/37/57 1/38/58
f 10/29/59 6/33/60 2/37/61
f 2/37/62 6/33/63 4/35/64
