# File produced by Open Asset Import Library (http://www.assimp.sf.net)
# (assimp v3.1.161429758)

mtllib dustpile1.mtl

# vertex positions
v -13.264198 7.915490 -16.513828
v -12.953347 7.748577 -15.879637
v -12.206162 8.102615 -16.884718
v -12.149205 8.196074 -15.785299
v -10.693872 7.774760 -15.822767
v -13.652641 7.466096 -17.664013
v -12.273593 7.730531 -18.095572
v -10.516669 7.499326 -16.930838
v -10.867877 7.444291 -17.805965
v -10.700729 7.338811 -14.904839
v -12.192570 7.257562 -14.338206
v -12.886921 7.299007 -14.861761
v -14.480764 7.198683 -16.988865
v -14.480764 5.219937 -16.988865
v -14.480764 5.219937 -15.501906
v -14.480764 7.086616 -15.501906
v -10.057572 6.948686 -15.971406
v -9.904382 5.219937 -15.501907
v -9.904382 5.219937 -16.988865
v -9.904382 6.979502 -16.988865
v -12.192570 7.239531 -18.651335
v -12.192570 5.219937 -18.651335
v -14.069173 5.219937 -18.191839
v -14.069173 6.955003 -18.191839
v -10.315967 5.219937 -18.191839
v -10.315967 6.979502 -18.191839
v -12.192570 6.705355 -13.839438
v -12.192570 5.219937 -13.839438
v -10.285048 5.219937 -14.298933
v -10.285048 6.705355 -14.298933
v -14.100094 5.219937 -14.298933
v -14.100094 6.705355 -14.298933

# UV coordinates
vt 0.422692 0.603519
vt 0.390020 0.529720
vt 0.533952 0.547363
vt 0.460611 0.459821
vt 0.584566 0.350054
vt 0.480545 0.735843
vt 0.618501 0.648808
vt 0.690140 0.418233
vt 0.721853 0.522910
vt 0.512578 0.265762
vt 0.330262 0.336619
vt 0.303697 0.437695
vt 0.358697 0.751102
vt 0.235017 0.946968
vt 0.047737 0.729688
vt 0.225113 0.634188
vt 0.679682 0.270068
vt 0.726300 0.062854
vt 0.927102 0.280384
vt 0.766988 0.371799
vt 0.678619 0.702245
vt 0.849045 0.880379
vt 0.486527 0.999023
vt 0.491303 0.832126
vt 0.991700 0.524877
vt 0.809405 0.523575
vt 0.267252 0.273017
vt 0.144525 0.155763
vt 0.477007 0.000977
vt 0.496613 0.166028
vt 0.000977 0.486439
vt 0.145831 0.497473

# vertex normals
vn -0.359386 0.933162 -0.007089
vn -0.335209 0.884087 0.325615
vn 0.042085 0.980333 -0.192812
vn 0.000865 0.968019 0.250875
vn 0.538024 0.833497 0.125748
vn -0.377807 0.839037 -0.391508
vn -0.035830 0.863926 -0.502343
vn 0.539672 0.831867 -0.129425
vn 0.363408 0.839170 -0.404635
vn 0.441266 0.754182 0.486306
vn 0.000207 0.781561 0.623829
vn -0.271883 0.820484 0.502877
vn -0.943620 0.293576 -0.152953
vn -0.988926 0.000000 -0.148410
vn -0.991545 0.000000 0.129764
vn -0.945508 0.273465 0.176725
vn 0.953838 0.269454 0.132622
vn 0.986090 0.067391 0.151940
vn 0.990382 0.026250 -0.135850
vn 0.962758 0.234892 -0.133880
vn -0.000665 0.217682 -0.976020
vn 0.000796 0.000000 -1.000000
vn -0.585498 0.000000 -0.810674
vn -0.587046 0.189549 -0.787050
vn 0.572924 0.000000 -0.819608
vn 0.571501 0.172108 -0.802350
vn 0.001335 0.244329 0.969692
vn 0.000000 0.000000 1.000000
vn 0.664218 0.040667 0.746432
vn 0.645326 0.241195 0.724831
vn -0.613761 0.000000 0.789492
vn -0.611867 0.214618 0.761287

# Mesh
g Dust Tank
usemtl DefaultMaterial
f 1/1/1 2/2/2 3/3/3
f 3/3/3 4/4/4 5/5/5
f 6/6/6 3/3/3 7/7/7
f 3/3/3 8/8/8 9/9/9
f 10/10/10 4/4/4 11/11/11
f 4/4/4 2/2/2 12/12/12
f 13/13/13 14/14/14 15/15/15
f 15/15/15 16/16/16 13/13/13
f 17/17/17 18/18/18 19/19/19
f 19/19/19 20/20/20 17/17/17
f 21/21/21 22/22/22 23/23/23
f 23/23/23 24/24/24 21/21/21
f 24/24/24 23/23/23 14/14/14
f 14/14/14 13/13/13 24/24/24
f 20/20/20 19/19/19 25/25/25
f 25/25/25 26/26/26 20/20/20
f 26/26/26 25/25/25 22/22/22
f 22/22/22 21/21/21 26/26/26
f 27/27/27 28/28/28 29/29/29
f 29/29/29 30/30/30 27/27/27
f 30/30/30 29/29/29 18/18/18
f 18/18/18 17/17/17 30/30/30
f 16/16/16 15/15/15 31/31/31
f 31/31/31 32/32/32 16/16/16
f 32/32/32 31/31/31 28/28/28
f 28/28/28 27/27/27 32/32/32
f 1/1/1 3/3/3 6/6/6
f 3/3/3 9/9/9 7/7/7
f 3/3/3 5/5/5 8/8/8
f 5/5/5 4/4/4 10/10/10
f 4/4/4 12/12/12 11/11/11
f 6/6/6 24/24/24 13/13/13
f 13/13/13 1/1/1 6/6/6
f 7/7/7 21/21/21 24/24/24
f 24/24/24 6/6/6 7/7/7
f 9/9/9 26/26/26 21/21/21
f 21/21/21 7/7/7 9/9/9
f 8/8/8 20/20/20 26/26/26
f 26/26/26 9/9/9 8/8/8
f 5/5/5 17/17/17 20/20/20
f 20/20/20 8/8/8 5/5/5
f 10/10/10 30/30/30 17/17/17
f 17/17/17 5/5/5 10/10/10
f 11/11/11 27/27/27 30/30/30
f 30/30/30 10/10/10 11/11/11
f 12/12/12 32/32/32 27/27/27
f 27/27/27 11/11/11 12/12/12
f 16/16/16 12/12/12 2/2/2
f 13/13/13 16/16/16 1/1/1
f 16/16/16 32/32/32 12/12/12
f 3/3/3 2/2/2 4/4/4
f 1/1/1 16/16/16 2/2/2
