# This file uses centimeters as units for non-parametric coordinates.

g default
v -8.125470 -0.009083 1.516745
v 8.125470 -0.009083 1.516745
v -8.125470 -0.009083 -1.516745
v 8.125470 -0.009083 -1.516745
v -8.125470 0.365784 -0.520355
v 8.125470 0.365784 -0.520355
v -8.125470 0.365784 0.472822
v 8.125470 0.365784 0.472822
v -8.125470 0.435386 -0.023767
v 8.125470 0.435386 -0.023767
vt 0.008810 0.259955
vt 0.988199 0.259600
vt 0.008879 0.451401
vt 0.988268 0.451046
vt 0.008856 0.387243
vt 0.988245 0.386887
vt 0.008834 0.326802
vt 0.988223 0.326447
vt 0.008845 0.357022
vt 0.988234 0.356667
vn 0.000000 0.941159 0.337964
vn 0.000000 0.960809 0.277213
vn 0.000000 0.960809 0.277213
vn 0.000000 0.941159 0.337964
vn 0.000000 0.958429 -0.285330
vn 0.000000 0.935952 -0.352128
vn 0.000000 0.935952 -0.352128
vn 0.000000 0.958429 -0.285330
vn 0.000000 1.000000 0.000000
vn 0.000000 1.000000 0.000000
s 1
g DoorList
f 2/2/1 8/8/2 7/7/3 1/1/4
f 6/6/5 4/4/6 3/3/7 5/5/8
f 9/9/9 10/10/10 6/6/5 5/5/8
f 7/7/3 8/8/2 10/10/10 9/9/9
