# This file uses centimeters as units for non-parametric coordinates.

g default
v -1.015439 0.044646 0.361787
v 1.015439 0.044646 0.361787
v -1.015439 0.195895 0.500000
v 1.015439 0.195895 0.500000
v -1.015439 0.396666 -0.500000
v 1.015439 0.396666 -0.500000
v -1.015439 0.044646 -0.500000
v 1.015439 0.044646 -0.500000
v -1.015439 0.396666 -1.453958
v 1.015439 0.396666 -1.453958
v 1.015439 0.044646 -1.453958
v -1.015439 0.044646 -1.453958
v -1.015439 1.685756 -0.500000
v 1.015439 1.685756 -0.500000
v 1.015439 1.366513 -1.453958
v -1.015439 1.366513 -1.453958
v -1.015439 0.426676 -0.500000
v -1.015439 0.419244 -1.453958
v 1.015439 0.419244 -1.453958
v 1.015439 0.426676 -0.500000
v -0.926392 0.396666 -0.541828
v 0.926392 0.396666 -0.541828
v 0.926392 0.426676 -0.541828
v -0.926392 0.426676 -0.541828
v 0.926392 0.396666 -1.412130
v 0.926392 0.419244 -1.412130
v -0.926392 0.396666 -1.412130
v -0.926392 0.419244 -1.412130
v 0.834313 0.538968 -0.500000
v -0.834313 0.538968 -0.500000
v 0.834313 1.573463 -0.500000
v -0.834313 1.573463 -0.500000
v 0.834313 0.538968 -0.599795
v -0.834313 0.538968 -0.599795
v 0.834313 1.573463 -0.599795
v -0.834313 1.573463 -0.599795
vt 0.679745 0.578687
vt 0.830090 0.573594
vt 0.832171 0.635006
vt 0.656526 0.605891
vt 0.996515 0.567955
vt 0.998596 0.629368
vt 0.712511 0.840672
vt 0.862920 0.843297
vt 0.886581 0.870116
vt 0.711439 0.902111
vt 0.544943 0.899205
vt 0.546016 0.837766
vt 0.711605 0.331720
vt 0.866111 0.332677
vt 0.869180 0.335066
vt 0.707669 0.334880
vt 0.869381 0.006785
vt 0.715881 0.004245
vt 0.711948 0.000977
vt 0.872355 0.004333
vt 0.186948 0.778990
vt 0.353474 0.779246
vt 0.354848 0.999023
vt 0.187982 0.944340
vt 0.735564 0.347281
vt 0.902056 0.343913
vt 0.904113 0.509253
vt 0.738298 0.567046
vt 0.691613 0.000977
vt 0.695581 0.214532
vt 0.683271 0.202197
vt 0.680871 0.014806
vt 0.372314 0.220148
vt 0.368270 0.006776
vt 0.380600 0.019093
vt 0.383127 0.206379
vt 0.369491 0.351208
vt 0.723988 0.353638
vt 0.900107 0.663301
vt 0.545604 0.661894
vt 0.884534 0.670541
vt 0.561119 0.669257
vt 0.899446 0.829821
vt 0.883931 0.822458
vt 0.544943 0.828413
vt 0.560516 0.821174
vt 0.538196 0.542444
vt 0.530104 0.896857
vt 0.523159 0.881151
vt 0.530542 0.557817
vt 0.363621 0.893056
vt 0.371275 0.877683
vt 0.371714 0.538643
vt 0.378658 0.554349
vt 0.962265 0.995008
vt 0.954081 0.640597
vt 0.989836 0.639771
vt 0.998020 0.994182
vt 0.916142 0.356138
vt 0.912237 0.001654
vt 0.973681 0.000977
vt 0.977586 0.355461
vt 0.359620 0.341903
vt 0.005142 0.346233
vt 0.003122 0.180893
vt 0.357600 0.176562
vt 0.000977 0.005308
vt 0.355455 0.000977
vt 0.000977 0.588796
vt 0.289233 0.586231
vt 0.290867 0.768685
vt 0.002610 0.771249
vt 0.002175 0.355532
vt 0.356675 0.357464
vt 0.324951 0.376893
vt 0.033684 0.375305
vt 0.355476 0.577243
vt 0.323967 0.557470
vt 0.000977 0.575310
vt 0.032700 0.555882
vt 0.368270 0.529245
vt 0.722767 0.531675
vn 0.000000 -0.674579 0.738203
vn 0.000000 -0.674579 0.738203
vn 0.000000 -0.674579 0.738203
vn 0.000000 -0.674579 0.738203
vn 0.000000 0.980435 0.196844
vn 0.000000 0.980435 0.196844
vn 0.000000 0.980435 0.196844
vn 0.000000 0.980435 0.196844
vn 0.000000 0.000000 -1.000000
vn 0.000000 0.000000 -1.000000
vn 0.000000 0.000000 -1.000000
vn 0.000000 0.000000 -1.000000
vn 1.000000 0.000000 0.000000
vn 1.000000 0.000000 0.000000
vn 1.000000 0.000000 0.000000
vn 1.000000 0.000000 0.000000
vn -1.000000 0.000000 0.000000
vn -1.000000 0.000000 0.000000
vn -1.000000 0.000000 0.000000
vn -1.000000 0.000000 0.000000
vn 0.000000 0.948308 -0.317352
vn 0.000000 0.948308 -0.317352
vn 0.000000 0.948308 -0.317352
vn 0.000000 0.948308 -0.317352
vn 1.000000 0.000000 0.000000
vn 1.000000 0.000000 0.000000
vn 1.000000 0.000000 0.000000
vn 1.000000 0.000000 0.000000
vn -1.000000 0.000000 0.000000
vn -1.000000 0.000000 0.000000
vn -1.000000 0.000000 0.000000
vn -1.000000 0.000000 0.000000
vn 0.000000 0.000000 1.000000
vn 0.000000 0.000000 1.000000
vn 0.000000 0.000000 1.000000
vn 0.000000 0.000000 1.000000
vn 1.000000 0.000000 0.000000
vn 1.000000 0.000000 0.000000
vn 1.000000 0.000000 0.000000
vn 1.000000 0.000000 0.000000
vn 0.000000 0.000000 -1.000000
vn 0.000000 0.000000 -1.000000
vn 0.000000 0.000000 -1.000000
vn 0.000000 0.000000 -1.000000
vn -1.000000 0.000000 0.000000
vn -1.000000 0.000000 0.000000
vn -1.000000 0.000000 0.000000
vn -1.000000 0.000000 0.000000
vn -1.000000 0.000000 0.000000
vn -1.000000 0.000000 0.000000
vn -1.000000 0.000000 0.000000
vn -1.000000 0.000000 0.000000
vn 0.000000 0.000000 -1.000000
vn 0.000000 0.000000 -1.000000
vn 0.000000 0.000000 -1.000000
vn 0.000000 0.000000 -1.000000
vn 1.000000 0.000000 0.000000
vn 1.000000 0.000000 0.000000
vn 1.000000 0.000000 0.000000
vn 1.000000 0.000000 0.000000
vn 0.000000 1.000000 -0.000000
vn 0.000000 1.000000 -0.000000
vn 0.000000 1.000000 -0.000000
vn 0.000000 1.000000 -0.000000
vn 0.000000 -1.000000 -0.000000
vn 0.000000 -1.000000 -0.000000
vn 0.000000 -1.000000 -0.000000
vn 0.000000 -1.000000 -0.000000
vn 0.000000 1.000000 0.000000
vn 0.000000 1.000000 0.000000
vn 0.000000 1.000000 0.000000
vn 0.000000 1.000000 0.000000
vn 0.000000 -0.999967 0.008148
vn 0.000000 -0.999967 0.008148
vn 0.000000 -0.999967 0.008148
vn 0.000000 -0.999967 0.008148
vn 0.000000 1.000000 0.000000
vn 0.000000 1.000000 0.000000
vn 0.000000 1.000000 0.000000
vn 0.000000 1.000000 0.000000
vn 0.000000 -1.000000 0.000000
vn 0.000000 -1.000000 0.000000
vn 0.000000 -1.000000 0.000000
vn 0.000000 -1.000000 0.000000
vn 0.000000 1.000000 0.000000
vn 0.000000 1.000000 0.000000
vn 0.000000 1.000000 0.000000
vn 0.000000 1.000000 0.000000
vn 0.000000 -0.999967 0.008148
vn 0.000000 -0.999967 0.008148
vn 0.000000 -0.999967 0.008148
vn 0.000000 -0.999967 0.008148
vn 0.000000 0.000000 1.000000
vn 0.000000 0.000000 1.000000
vn 0.000000 0.000000 1.000000
vn 0.000000 0.000000 1.000000
vn 0.000000 0.000000 1.000000
vn 0.000000 0.000000 1.000000
vn 0.000000 0.000000 1.000000
vn 0.000000 0.000000 1.000000
vn 0.000000 0.000000 1.000000
vn 0.000000 0.000000 1.000000
vn 0.000000 0.000000 1.000000
vn 0.000000 0.000000 1.000000
vn 0.000000 0.000000 1.000000
vn 0.000000 0.000000 1.000000
vn 0.000000 0.000000 1.000000
vn 0.000000 0.000000 1.000000
vn 0.000000 1.000000 0.000000
vn 0.000000 1.000000 0.000000
vn 0.000000 1.000000 0.000000
vn 0.000000 1.000000 0.000000
vn -1.000000 0.000000 0.000000
vn -1.000000 0.000000 0.000000
vn -1.000000 0.000000 0.000000
vn -1.000000 0.000000 0.000000
vn 0.000000 -1.000000 0.000000
vn 0.000000 -1.000000 0.000000
vn 0.000000 -1.000000 0.000000
vn 0.000000 -1.000000 0.000000
vn 1.000000 0.000000 0.000000
vn 1.000000 0.000000 0.000000
vn 1.000000 0.000000 0.000000
vn 1.000000 0.000000 0.000000
vn 0.000000 0.000000 1.000000
vn 0.000000 0.000000 1.000000
vn 0.000000 0.000000 1.000000
vn 0.000000 0.000000 1.000000
s off
g ComputerLP
f 1/55/1 2/56/2 4/57/3 3/58/4
f 3/37/5 4/38/6 6/82/7 5/81/8
f 9/59/9 10/60/10 11/61/11 12/62/12
f 2/1/13 8/2/14 6/3/15 4/4/16
f 7/7/17 1/8/18 3/9/19 5/10/20
f 13/67/21 14/68/22 15/66/23 16/65/24
f 6/3/25 8/2/26 11/5/27 10/6/28
f 7/7/29 5/10/30 9/11/31 12/12/32
f 21/18/33 22/13/34 23/16/35 24/19/36
f 22/13/37 25/14/38 26/15/39 23/16/40
f 25/14/41 27/17/42 28/20/43 26/15/44
f 27/17/45 21/18/46 24/19/47 28/20/48
f 18/21/49 17/22/50 13/23/51 16/24/52
f 19/63/53 18/64/54 16/65/55 15/66/56
f 20/25/57 19/26/58 15/27/59 14/28/60
f 5/40/61 6/39/62 22/41/63 21/42/64
f 20/47/65 17/48/66 24/49/67 23/50/68
f 6/39/69 10/43/70 25/44/71 22/41/72
f 19/53/73 20/47/74 23/50/75 26/54/76
f 10/43/77 9/45/78 27/46/79 25/44/80
f 18/51/81 19/53/82 26/54/83 28/52/84
f 9/45/85 5/40/86 21/42/87 27/46/88
f 17/48/89 18/51/90 28/52/91 24/49/92
f 17/73/93 20/74/94 29/75/95 30/76/96
f 20/74/97 14/77/98 31/78/99 29/75/100
f 14/77/101 13/79/102 32/80/103 31/78/104
f 13/79/105 17/73/106 30/76/107 32/80/108
f 30/34/109 29/29/110 33/32/111 34/35/112
f 29/29/113 31/30/114 35/31/115 33/32/116
f 31/30/117 32/33/118 36/36/119 35/31/120
f 32/33/121 30/34/122 34/35/123 36/36/124
f 36/72/125 34/69/126 33/70/127 35/71/128
